<svg xmlns="http://www.w3.org/2000/svg" width="552" height="552" viewBox="0 0 552 552">
<g>
<path d="M 206.42 383.68 C205.04,384.69 198.55,385.00 178.69,385.00 L 152.77 385.00 L 144.75 377.25 C140.35,372.99 125.18,357.12 111.06,342.00 C96.94,326.88 83.23,312.25 80.59,309.50 C68.63,297.03 63.12,291.17 44.95,271.50 C34.27,259.95 21.56,246.34 16.69,241.25 C11.82,236.17 8.03,231.44 8.27,230.75 C8.88,229.04 15.54,229.46 26.00,231.88 C30.67,232.96 38.10,234.60 42.50,235.52 C46.90,236.44 55.45,238.30 61.50,239.64 C82.93,244.42 103.01,248.89 116.75,251.94 C121.56,253.01 130.00,254.82 135.50,255.97 C141.00,257.11 149.10,258.89 153.50,259.93 C157.90,260.96 165.21,262.60 169.75,263.57 L 178.01 265.33 L 182.25 261.93 C189.76,255.92 189.47,256.17 203.10,244.01 C207.72,239.89 214.88,233.34 219.00,229.47 C223.12,225.59 230.77,218.62 236.00,213.99 C241.23,209.36 247.07,203.94 249.00,201.95 C250.93,199.95 258.35,193.20 265.50,186.95 C272.65,180.70 279.77,174.33 281.33,172.79 C282.65,171.48 283.44,170.68 284.40,170.36 C285.86,169.87 287.70,170.50 292.44,172.13 L 292.70 172.22 C301.07,175.09 308.19,181.55 310.34,188.22 C310.37,188.32 310.40,188.41 310.43,188.50 C311.01,190.29 311.38,191.46 311.24,192.56 C310.97,194.67 308.80,196.53 302.50,202.07 C296.66,207.20 282.27,220.10 277.08,224.86 C260.17,240.35 253.75,246.14 237.00,260.99 C226.27,270.51 213.05,282.39 207.61,287.39 C202.17,292.40 196.71,297.40 195.47,298.50 C168.88,322.14 163.00,327.49 163.00,328.04 C163.00,328.71 165.37,331.39 186.99,355.16 C200.49,370.02 207.36,378.42 207.86,380.72 C208.06,381.63 207.41,382.96 206.42,383.68 ZM 542.00 243.56 C542.00,245.17 540.34,245.24 534.50,243.85 C530.55,242.91 523.60,241.58 507.00,238.59 C502.33,237.75 495.35,236.40 491.50,235.59 C487.65,234.78 479.33,233.15 473.00,231.97 C466.67,230.79 456.45,228.79 450.28,227.53 L 439.06 225.23 L 421.46 209.37 C411.78,200.64 395.91,186.38 386.18,177.67 C376.46,168.96 364.00,157.67 358.50,152.57 C353.00,147.47 341.98,137.52 334.00,130.46 C326.02,123.40 317.48,115.72 315.00,113.40 C305.80,104.77 299.22,98.83 288.83,89.79 C282.97,84.68 277.81,79.82 277.37,79.00 C276.47,77.28 275.64,11.67 276.48,8.25 C276.79,7.01 277.59,6.02 278.27,6.05 C278.95,6.08 283.86,10.01 289.18,14.80 C294.51,19.58 309.13,32.69 321.68,43.93 C334.23,55.17 349.00,68.51 354.50,73.58 C360.00,78.66 373.95,91.28 385.50,101.62 C397.05,111.97 406.99,120.90 407.60,121.47 C408.20,122.04 412.23,125.65 416.56,129.50 C439.60,149.99 445.74,155.50 448.16,157.88 C451.32,160.99 457.97,167.00 481.41,187.91 C531.58,232.68 542.00,242.25 542.00,243.56 ZM 326.07 529.25 C317.73,539.01 310.32,547.00 309.59,547.00 C307.80,547.00 186.89,424.99 187.57,423.88 C187.87,423.40 201.15,423.00 217.07,423.00 L 246.03 423.00 L 251.34 428.75 C271.51,450.61 279.93,459.79 282.83,463.15 C284.66,465.27 286.75,467.00 287.48,467.00 C288.21,467.00 291.88,464.70 295.65,461.89 C306.27,453.96 353.26,419.15 355.50,417.54 C358.32,415.52 404.40,381.28 416.85,371.95 L 427.20 364.20 L 439.85 363.62 C446.81,363.31 455.19,362.93 458.48,362.77 C463.30,362.55 464.53,362.81 464.78,364.09 C464.95,364.96 461.66,369.69 457.46,374.59 C453.27,379.49 444.36,390.02 437.67,398.00 C430.98,405.98 424.66,413.40 423.63,414.50 C422.60,415.60 417.44,421.67 412.17,428.00 C406.90,434.33 402.33,439.73 402.01,440.00 C401.69,440.27 396.49,446.35 390.46,453.50 C384.43,460.65 375.45,471.23 370.50,477.02 C365.55,482.81 356.94,492.94 351.36,499.52 C345.78,506.11 334.40,519.49 326.07,529.25 ZM 348.36 239.71 C346.49,243.12 344.57,246.15 344.11,246.43 C342.89,247.19 340.61,244.28 337.50,238.00 C336.01,234.98 332.25,229.12 329.15,225.00 L 323.52 217.50 L 322.87 207.50 C321.69,189.38 313.98,176.54 300.08,169.54 C290.86,164.90 284.13,163.84 266.00,164.20 L 250.50 164.50 L 249.95 196.80 L 244.23 201.64 C241.08,204.30 236.70,208.12 234.50,210.13 C224.68,219.10 218.39,223.99 217.00,223.74 C215.71,223.51 215.46,219.13 215.24,192.74 L 214.97 162.00 L 198.05 162.00 C188.74,162.00 180.04,161.59 178.71,161.08 C176.04,160.07 171.09,153.62 151.38,125.50 C146.75,118.90 141.15,111.03 138.94,108.00 C136.72,104.97 131.57,97.78 127.49,92.00 C123.41,86.22 119.41,80.60 118.61,79.50 C117.80,78.40 112.53,70.97 106.88,63.00 C101.24,55.03 94.68,45.87 92.31,42.65 C87.66,36.34 87.12,34.55 89.58,33.61 C91.85,32.74 143.28,32.88 144.61,33.77 C145.88,34.60 195.37,106.02 204.50,120.19 L 210.50 129.50 L 246.00 130.06 C265.60,130.37 284.41,131.14 288.00,131.78 C294.72,132.97 309.97,137.92 315.40,140.68 C322.32,144.19 334.36,154.99 341.95,164.50 C347.63,171.63 350.04,176.18 353.67,186.67 C356.05,193.56 356.37,196.00 356.37,207.00 C356.36,221.09 354.57,228.40 348.36,239.71 ZM 139.62 369.43 L 153.75 383.56 L 178.31 383.77 C199.45,383.96 203.09,383.77 204.44,382.42 C205.30,381.56 206.00,380.51 206.00,380.08 C206.00,379.66 203.86,376.84 201.25,373.81 C198.64,370.78 195.42,367.00 194.10,365.40 C191.81,362.64 188.07,358.48 178.00,347.48 C165.63,333.97 162.00,329.56 162.00,328.06 C162.00,327.15 167.28,321.71 173.72,315.96 C180.17,310.21 186.53,304.45 187.85,303.17 C189.16,301.89 199.11,292.89 209.94,283.17 C245.26,251.49 262.07,236.32 280.86,219.19 C285.46,215.00 291.09,209.98 293.36,208.04 C300.88,201.61 310.00,192.70 310.00,191.78 C310.00,191.28 308.89,188.53 307.54,185.67 C305.59,181.55 303.97,179.82 299.79,177.33 C293.08,173.35 287.74,171.50 285.49,172.37 C283.85,173.00 283.84,173.16 285.39,174.88 C287.67,177.40 286.91,178.60 278.73,185.50 C274.81,188.80 267.95,194.88 263.48,199.00 C250.74,210.76 229.83,229.63 214.01,243.66 C206.05,250.72 197.48,258.52 194.97,261.00 C192.46,263.48 186.68,268.83 182.12,272.89 C174.06,280.09 173.70,280.28 168.67,280.25 C164.24,280.21 144.02,275.92 134.50,272.99 C131.44,272.05 104.57,265.61 91.00,262.56 C86.88,261.64 77.97,259.48 71.21,257.78 C54.51,253.57 53.93,254.31 65.05,265.76 C69.72,270.57 78.91,280.12 85.48,287.00 C92.06,293.88 109.78,312.10 124.88,327.50 C139.98,342.90 156.98,360.26 162.66,366.08 C168.35,371.89 173.00,377.41 173.00,378.33 C173.00,379.64 172.05,380.00 168.62,380.00 C164.50,380.00 163.88,379.61 157.87,373.13 C144.66,358.88 108.09,320.42 105.84,318.40 C104.55,317.24 100.12,312.54 96.00,307.95 C91.88,303.35 80.40,291.01 70.50,280.52 C60.60,270.02 48.45,256.99 43.50,251.56 C28.17,234.73 25.92,233.08 16.25,231.51 C12.73,230.94 12.00,231.10 12.00,232.43 C12.00,234.06 13.85,236.17 31.56,254.88 C37.10,260.72 46.24,270.56 51.89,276.75 C57.53,282.94 62.56,288.00 63.07,288.00 C63.58,288.00 64.00,288.44 64.00,288.98 C64.00,289.52 66.39,292.33 69.30,295.23 C72.22,298.13 80.63,307.02 87.99,315.00 C113.77,342.92 125.61,355.40 139.62,369.43 ZM 85.83 513.20 C83.32,515.82 80.12,516.94 79.91,515.25 C79.29,510.27 80.38,364.26 81.04,363.58 C81.57,363.04 87.36,368.01 95.40,375.90 L 108.86 389.13 L 170.18 388.75 C229.66,388.39 231.71,388.32 238.38,386.22 C254.52,381.16 267.38,373.29 279.48,361.06 C283.86,356.63 287.87,353.00 288.37,353.00 C289.32,353.00 296.75,358.68 300.70,362.42 C301.91,363.56 303.49,364.95 304.20,365.51 C313.17,372.49 314.00,373.33 314.00,375.55 C314.00,380.82 294.46,396.31 276.50,405.27 C270.47,408.28 252.84,414.06 240.50,417.07 C231.92,419.16 229.94,419.24 197.78,418.80 C179.24,418.55 163.66,418.60 163.16,418.92 C162.03,419.64 118.29,473.11 95.65,501.45 C91.72,506.37 87.30,511.66 85.83,513.20 ZM 81.53 440.75 C80.90,505.01 80.99,513.00 82.34,513.00 C84.10,513.00 84.90,512.20 91.00,504.46 C93.47,501.32 98.60,495.09 102.39,490.62 C106.18,486.16 109.98,481.38 110.85,480.00 C111.71,478.62 114.95,474.58 118.05,471.00 C121.15,467.42 130.14,456.40 138.01,446.50 C145.89,436.60 153.77,426.87 155.54,424.89 C157.30,422.90 159.22,420.42 159.80,419.39 C160.80,417.60 163.00,417.47 200.18,416.94 C237.41,416.40 239.90,416.25 247.00,414.09 C258.36,410.62 270.87,406.01 277.00,403.01 C288.47,397.41 300.95,388.67 310.19,379.75 C312.07,377.93 312.50,375.33 311.23,373.35 C309.99,371.41 289.59,355.00 288.42,355.00 C287.81,355.00 285.50,357.16 283.27,359.79 C279.51,364.25 266.03,376.00 264.67,376.00 C264.34,376.00 261.94,377.35 259.33,379.00 C254.40,382.13 248.01,384.78 237.00,388.27 C230.79,390.24 227.73,390.35 169.21,390.72 L 107.92 391.11 L 95.76 379.05 C89.08,372.42 83.30,367.33 82.92,367.75 C82.54,368.16 81.91,401.01 81.53,440.75 ZM 249.50 485.46 C287.01,523.20 308.21,543.82 309.50,543.84 C310.76,543.86 313.53,541.44 317.00,537.30 C320.02,533.68 323.41,529.77 324.51,528.61 C325.62,527.45 328.30,524.25 330.48,521.50 C332.65,518.75 334.69,516.28 335.01,516.00 C335.48,515.60 347.20,502.13 359.39,488.00 C360.58,486.62 365.79,480.33 370.98,474.00 C376.17,467.67 383.94,458.45 388.25,453.50 C392.56,448.55 396.45,444.03 396.88,443.46 C397.32,442.89 399.80,439.97 402.40,436.96 C409.22,429.06 410.29,427.79 421.89,414.00 C427.68,407.12 437.15,395.97 442.95,389.21 C459.19,370.30 461.29,367.60 460.11,367.20 C458.62,366.71 455.15,369.53 444.00,380.33 C438.77,385.38 427.32,396.27 418.55,404.51 C409.78,412.75 401.63,420.51 400.44,421.75 C399.25,422.99 397.95,424.00 397.56,424.00 C396.47,424.00 394.00,426.73 394.00,427.93 C394.00,428.52 393.63,429.00 393.18,429.00 C392.73,429.00 387.44,433.87 381.43,439.83 C375.42,445.78 358.60,461.87 344.05,475.58 C329.51,489.28 313.54,504.44 308.58,509.25 C303.62,514.06 298.93,518.00 298.17,518.00 C296.59,518.00 290.81,512.27 272.99,493.01 C253.72,472.20 248.07,466.17 240.50,458.36 C226.71,444.12 212.49,428.90 212.19,428.04 C211.81,426.94 214.86,426.28 217.50,426.88 C218.60,427.13 223.77,431.87 229.00,437.42 C252.14,461.98 296.55,506.96 297.96,507.26 C299.58,507.61 303.32,505.27 308.22,500.83 C309.84,499.36 311.59,497.79 312.10,497.33 C312.62,496.87 314.08,495.38 315.35,494.00 C318.34,490.77 343.03,467.56 354.00,457.67 C358.67,453.46 362.99,449.45 363.59,448.76 C364.19,448.06 370.49,442.10 377.58,435.50 C384.66,428.90 395.23,418.92 401.05,413.32 C406.88,407.71 413.17,401.86 415.04,400.32 C416.90,398.77 420.52,395.48 423.08,393.00 C425.63,390.52 430.04,386.29 432.86,383.59 C438.25,378.45 439.73,373.88 436.41,372.60 C436.08,372.48 435.85,372.33 435.61,372.25 C434.46,371.90 432.81,373.13 416.42,385.44 C414.80,386.66 413.03,388.00 411.09,389.45 C409.67,390.52 396.12,400.54 381.00,411.72 C365.88,422.90 346.30,437.43 337.50,444.01 C328.70,450.58 318.89,457.88 315.70,460.23 C312.51,462.58 306.66,467.00 302.70,470.05 C292.77,477.70 286.37,482.00 284.92,482.00 C283.47,482.00 231.00,429.39 231.00,427.94 C231.00,426.38 233.71,425.72 237.26,426.42 C239.55,426.87 241.93,428.74 245.39,432.78 C248.08,435.93 254.45,443.00 259.54,448.50 C264.63,454.00 271.42,461.56 274.62,465.29 C279.27,470.70 280.96,472.03 282.90,471.79 C284.25,471.63 285.51,471.00 285.71,470.38 C286.03,469.40 268.00,448.79 250.92,430.59 L 245.34 424.64 L 218.42 424.57 C196.93,424.51 191.50,424.76 191.50,425.80 C191.50,426.52 217.60,453.37 249.50,485.46 ZM 339.80 238.75 C341.03,241.09 342.71,243.00 343.53,243.00 C345.29,243.00 351.24,230.76 353.01,223.50 C354.81,216.11 355.38,200.25 354.03,195.00 C353.39,192.52 352.51,188.93 352.08,187.00 C349.57,175.94 339.35,161.57 326.42,150.95 C314.83,141.43 308.82,138.66 289.50,133.95 C286.30,133.17 271.04,132.51 247.19,132.12 L 209.88 131.50 L 207.98 129.00 C206.93,127.62 203.77,122.68 200.96,118.00 C198.15,113.32 190.96,102.53 184.97,94.00 C173.38,77.50 158.60,56.19 153.27,48.29 C147.77,40.15 147.55,39.84 145.68,37.38 C143.71,34.80 139.00,34.08 139.00,36.36 C139.00,37.11 140.24,39.34 141.75,41.31 C143.26,43.28 145.99,47.06 147.82,49.70 C155.26,60.49 172.02,84.70 173.98,87.50 C175.14,89.15 180.33,96.93 185.52,104.79 C190.71,112.64 196.00,120.52 197.28,122.29 C198.56,124.05 200.20,126.70 200.92,128.16 C201.65,129.62 203.51,132.21 205.06,133.91 L 207.89 137.00 L 242.40 137.00 C273.05,137.00 277.85,137.22 285.21,138.94 C302.53,142.99 316.57,149.17 324.71,156.32 C330.90,161.75 340.48,174.44 344.42,182.40 C350.61,194.93 351.23,206.14 346.85,226.20 C344.56,236.69 340.32,233.71 342.14,222.88 C343.47,214.92 342.56,193.82 340.65,188.47 C337.00,178.20 333.39,172.30 326.94,166.00 C317.20,156.50 303.53,149.67 283.02,144.05 C276.14,142.17 272.72,142.00 240.61,142.00 L 205.68 142.00 L 201.43 139.51 C196.46,136.60 193.83,133.13 173.01,102.00 C170.62,98.43 167.58,93.93 166.24,92.00 C164.91,90.07 162.27,86.25 160.38,83.50 C158.50,80.75 154.69,75.35 151.93,71.50 C143.34,59.52 135.57,47.96 133.78,44.49 C130.98,39.08 128.59,38.00 119.34,38.00 C114.82,38.00 110.86,38.41 110.55,38.92 C109.90,39.97 114.79,48.19 122.50,59.00 C132.40,72.88 140.46,84.08 146.50,92.34 C153.03,101.28 157.66,107.81 160.00,111.41 C164.49,118.31 183.02,144.52 184.98,146.75 C185.58,147.44 187.16,148.00 188.48,148.00 C189.80,148.00 191.16,148.45 191.50,149.00 C191.87,149.60 198.67,150.00 208.52,150.00 C223.13,150.00 225.03,150.19 225.85,151.75 C226.36,152.71 226.83,166.13 226.89,181.57 L 227.01 209.64 L 224.45 212.04 C222.30,214.07 221.75,214.22 220.96,212.97 C220.45,212.16 220.07,201.82 220.12,190.00 C220.16,178.18 220.15,165.24 220.10,161.25 L 220.00 154.00 L 181.13 154.00 L 177.72 149.75 C173.67,144.71 155.55,119.46 140.56,98.00 C138.07,94.43 134.69,89.70 133.06,87.50 C131.43,85.30 127.56,79.90 124.45,75.50 C121.35,71.10 115.24,62.55 110.88,56.50 C106.51,50.45 101.36,43.14 99.44,40.25 C96.53,35.88 95.44,35.00 92.97,35.00 C90.00,35.00 88.83,37.16 91.04,38.53 C91.61,38.88 93.26,41.03 94.70,43.31 C96.14,45.59 97.90,48.04 98.62,48.76 C99.33,49.48 103.42,55.11 107.69,61.28 C111.97,67.45 117.50,75.23 119.98,78.56 C122.47,81.89 127.88,89.50 132.00,95.46 C136.12,101.43 144.00,112.43 149.51,119.90 C155.02,127.38 160.86,135.52 162.50,138.00 C164.13,140.48 168.33,146.44 171.81,151.25 L 178.16 160.00 L 197.08 160.00 C215.99,160.00 216.00,160.00 216.16,162.25 C216.25,163.49 216.36,177.09 216.41,192.48 C216.49,217.01 216.69,220.50 218.06,220.77 C218.92,220.94 220.74,220.05 222.11,218.79 C224.33,216.74 238.00,204.97 245.29,198.84 C248.06,196.51 248.07,196.46 248.49,181.50 C248.73,173.25 248.93,166.19 248.96,165.82 C248.98,165.45 249.59,164.55 250.32,163.82 C251.36,162.78 255.80,162.62 271.57,163.06 L 291.50 163.62 L 297.84 166.87 C310.68,173.45 314.82,177.56 320.13,188.96 C323.67,196.58 325.14,203.40 324.88,211.05 C324.70,216.34 324.92,216.89 329.77,222.91 C332.57,226.38 335.47,230.41 336.21,231.86 C336.95,233.31 338.57,236.41 339.80,238.75 ZM 95.88 215.97 C89.07,222.56 82.94,227.96 82.25,227.97 C81.26,227.99 81.00,212.57 81.00,154.11 C81.00,87.48 81.16,80.15 82.59,79.60 C84.83,78.74 85.25,79.12 93.49,89.34 C97.54,94.38 105.65,104.35 111.51,111.50 C117.37,118.65 124.57,127.47 127.51,131.11 C130.45,134.74 133.47,138.34 134.22,139.11 C134.96,139.87 140.13,146.12 145.70,153.00 C151.28,159.88 157.56,167.62 159.67,170.20 L 163.50 174.90 L 185.17 174.95 C197.09,174.98 207.55,175.27 208.42,175.61 C210.78,176.51 210.78,202.49 208.42,203.39 C207.55,203.73 184.66,204.00 157.55,204.00 L 108.26 204.00 ZM 529.76 241.43 C530.94,242.60 536.17,242.01 535.75,240.75 C535.27,239.30 522.75,233.98 478.50,216.44 C442.83,202.30 441.62,201.75 438.62,198.54 C437.46,197.29 432.00,192.31 426.50,187.48 C421.00,182.65 414.67,177.08 412.43,175.10 C407.70,170.91 400.63,164.71 386.00,151.92 C380.23,146.87 371.90,139.49 367.50,135.53 C350.85,120.54 340.03,111.24 330.24,103.50 C320.99,96.18 319.86,94.90 316.92,88.50 C315.16,84.65 312.68,79.25 311.42,76.50 C310.16,73.75 305.88,64.07 301.91,55.00 C297.95,45.92 294.40,38.05 294.03,37.50 C293.65,36.95 292.53,34.25 291.52,31.50 C289.08,24.79 282.01,10.67 280.67,9.82 C280.08,9.44 279.24,9.35 278.80,9.62 C277.80,10.24 277.76,77.11 278.77,78.59 C279.17,79.18 280.24,80.08 281.15,80.59 C282.77,81.48 293.62,91.35 310.88,107.63 C315.62,112.10 321.52,117.45 324.00,119.50 C327.64,122.53 335.64,129.77 349.41,142.51 C350.01,143.06 352.08,144.80 354.00,146.36 C355.92,147.93 362.45,153.82 368.50,159.44 C374.55,165.06 383.55,173.19 388.50,177.52 C393.45,181.84 400.65,188.33 404.51,191.94 C408.37,195.55 413.77,200.50 416.51,202.93 C419.25,205.37 425.58,211.06 430.57,215.57 C438.49,222.74 440.32,223.91 445.07,224.88 C454.27,226.76 479.90,231.72 492.00,233.97 C498.33,235.14 506.88,236.80 511.00,237.65 C515.12,238.50 520.90,239.56 523.84,240.02 C526.78,240.48 529.44,241.11 529.76,241.43 ZM 82.89 223.25 C83.20,225.41 86.43,222.98 96.54,213.00 L 107.69 202.00 L 208.00 202.00 L 208.00 190.67 C208.00,184.43 207.70,179.04 207.34,178.67 C206.98,178.31 206.05,178.91 205.28,180.01 C203.96,181.89 202.73,182.00 182.01,182.00 C180.91,182.00 179.86,182.00 178.86,182.00 C164.99,182.01 161.03,182.01 158.51,180.11 C157.32,179.21 156.44,177.89 155.00,175.95 C153.62,174.10 151.12,170.99 149.44,169.04 C147.76,167.09 145.51,164.33 144.44,162.89 C142.51,160.29 135.33,151.29 132.17,147.50 C131.25,146.40 127.17,141.23 123.11,136.00 C119.04,130.77 114.88,125.60 113.86,124.50 C112.83,123.40 110.42,120.47 108.50,118.00 C106.58,115.53 104.40,112.82 103.66,112.00 C102.93,111.18 101.27,109.04 99.97,107.25 C98.68,105.46 97.03,104.00 96.31,104.00 C96.15,104.00 95.99,103.98 95.85,103.95 C95.64,103.92 95.46,103.89 95.33,103.96 C94.65,104.33 95.49,107.46 100.79,127.30 C101.45,129.77 102.17,132.49 102.98,135.50 C104.00,139.35 105.60,145.20 106.52,148.50 C108.25,154.69 110.59,164.50 112.01,171.50 C113.60,179.34 115.92,186.34 117.20,187.15 C117.92,187.60 136.50,188.04 158.50,188.12 C200.12,188.28 204.23,188.17 204.70,189.43 C204.80,189.68 204.75,189.98 204.82,190.36 C205.02,191.38 204.79,192.61 204.31,193.09 C203.27,194.13 109.90,192.32 108.88,191.23 C108.23,190.54 106.34,181.78 98.38,142.50 C96.48,133.15 94.09,121.68 93.05,117.00 C92.01,112.32 90.18,103.55 88.97,97.50 C86.65,85.87 85.34,82.24 83.99,83.64 C83.37,84.28 82.31,219.16 82.89,223.25 ZM 511.43 492.11 C511.13,492.60 510.57,492.89 510.19,492.76 C509.81,492.62 479.07,492.40 441.87,492.25 C387.54,492.04 374.02,491.73 373.14,490.67 C372.31,489.67 373.86,487.26 379.78,480.38 C395.92,461.60 411.67,443.17 418.95,434.56 C431.28,419.97 431.56,419.74 434.18,422.28 C437.31,425.31 471.49,455.46 482.00,464.46 C500.43,480.26 512.03,491.15 511.43,492.11 ZM 499.00 215.88 C503.44,218.29 504.00,218.35 504.00,216.42 C504.00,214.75 502.18,212.85 492.11,204.00 C483.76,196.66 481.94,195.01 470.54,184.50 C465.17,179.55 458.61,173.70 455.96,171.50 C453.32,169.30 446.25,163.00 440.25,157.50 C434.26,152.00 423.99,142.77 417.44,137.00 C410.89,131.23 400.57,121.99 394.51,116.48 C388.46,110.97 381.02,104.39 378.00,101.86 C374.98,99.33 369.80,94.70 366.50,91.56 C363.20,88.43 356.48,82.41 351.57,78.18 C346.65,73.96 338.20,66.45 332.77,61.50 C327.35,56.55 319.67,49.64 315.71,46.15 C311.74,42.66 306.80,38.20 304.71,36.24 C301.86,33.55 300.65,32.95 299.78,33.82 C298.55,35.05 299.61,37.29 311.58,59.00 C314.76,64.78 319.45,73.55 322.01,78.50 C326.39,87.00 327.45,88.22 341.19,100.50 C349.19,107.65 358.15,115.53 361.11,118.00 C364.08,120.47 369.42,125.20 373.00,128.50 C376.58,131.81 382.20,136.74 385.50,139.48 C392.79,145.52 398.56,150.57 406.55,157.93 C416.81,167.37 439.04,186.43 441.33,187.75 C442.52,188.44 455.20,194.62 469.50,201.49 C483.80,208.36 497.08,214.84 499.00,215.88 ZM 341.95 332.15 C340.35,338.14 338.34,337.77 329.47,329.86 C327.83,328.40 322.00,323.37 316.50,318.68 L 306.50 310.15 L 306.50 299.32 C306.50,291.81 305.98,286.97 304.81,283.50 C303.88,280.75 302.58,276.02 301.92,273.00 C300.07,264.46 293.32,250.26 287.19,242.00 C284.12,237.88 281.05,234.05 280.36,233.50 C279.67,232.95 278.97,231.93 278.80,231.24 C278.40,229.58 302.03,206.01 304.12,206.01 C305.63,206.00 317.42,217.41 323.56,224.83 C328.69,231.03 339.06,250.45 341.53,258.50 C342.88,262.90 344.68,270.55 345.53,275.50 C346.37,280.45 347.50,286.93 348.03,289.90 C349.35,297.31 347.13,312.79 341.95,332.15 ZM 366.82 402.30 C364.25,403.78 361.10,405.00 359.82,405.00 C358.54,404.99 355.18,403.08 352.33,400.75 C346.93,396.30 342.68,392.79 314.00,369.07 C299.08,356.74 289.87,349.19 283.00,343.67 C282.17,343.00 277.68,339.32 273.01,335.48 C268.34,331.64 263.43,327.60 262.09,326.50 C260.75,325.40 258.27,323.23 256.58,321.69 C253.82,319.17 253.76,319.00 256.00,320.08 C257.38,320.74 260.14,322.69 262.14,324.39 C270.05,331.14 271.90,332.66 283.12,341.61 C289.51,346.71 299.96,355.30 306.36,360.69 C312.75,366.09 321.58,373.42 326.00,377.00 C335.95,385.07 338.60,387.24 348.00,395.03 C348.37,395.34 348.73,395.64 349.07,395.92 C356.25,401.87 358.52,403.76 360.61,403.58 C361.68,403.48 362.70,402.85 364.31,401.95 C366.61,400.66 371.65,397.06 375.50,393.95 C379.35,390.85 383.51,387.77 384.75,387.12 C385.99,386.46 387.00,385.27 387.00,384.46 C387.00,382.72 386.54,382.65 384.24,384.08 C381.57,385.73 378.45,384.04 369.03,375.86 C364.37,371.81 357.09,365.80 352.85,362.50 C341.66,353.79 330.43,344.55 323.00,337.94 C319.42,334.76 312.00,328.54 306.50,324.11 C301.00,319.69 290.20,310.81 282.50,304.39 C274.80,297.97 266.71,291.41 264.52,289.80 C257.61,284.74 247.00,274.76 247.00,273.33 C247.00,271.32 251.13,270.07 255.73,270.69 C257.93,270.99 265.70,270.47 273.01,269.54 C283.98,268.14 286.43,268.08 287.13,269.17 C287.59,269.90 287.83,270.95 287.65,271.49 C287.08,273.32 279.58,274.85 270.83,274.92 C257.10,275.04 256.14,276.08 264.57,281.68 C268.78,284.47 270.34,285.06 270.94,284.09 C271.38,283.38 275.02,282.43 279.12,281.97 C286.67,281.11 292.75,278.81 293.65,276.47 C294.36,274.62 291.38,263.53 289.29,260.24 C288.33,258.73 286.19,256.03 284.53,254.23 C281.59,251.04 281.37,250.97 275.51,251.62 C272.20,251.98 268.83,252.41 268.00,252.56 C267.17,252.72 264.02,252.88 261.00,252.93 C256.47,253.00 254.97,253.49 252.49,255.75 C241.63,265.65 228.31,277.81 226.47,279.50 C225.27,280.60 221.68,283.75 218.48,286.50 C215.29,289.25 210.80,293.30 208.51,295.50 C206.22,297.70 202.57,301.08 200.40,303.00 C174.69,325.79 171.74,328.73 172.77,330.51 C173.17,331.20 180.73,339.24 189.56,348.38 L 205.62 365.00 L 249.00 365.00 L 249.00 357.50 C249.00,353.38 248.66,349.94 248.25,349.88 C247.84,349.81 235.69,349.67 221.26,349.56 C195.20,349.36 194.99,349.34 192.51,347.01 C187.42,342.22 188.27,342.00 211.57,342.00 C232.65,342.00 236.27,341.54 238.23,338.60 C238.64,338.00 238.98,326.92 239.00,314.00 C239.03,289.96 239.37,286.00 241.39,286.00 C242.49,286.00 247.85,290.18 273.50,311.03 C279.55,315.94 290.80,324.99 298.50,331.13 C306.20,337.27 314.08,343.61 316.00,345.23 C317.92,346.84 323.07,350.84 327.43,354.12 C331.80,357.40 337.20,361.66 339.43,363.60 C341.67,365.53 348.00,370.71 353.50,375.11 C354.75,376.11 355.93,377.05 357.03,377.93 C369.47,387.86 372.14,390.00 371.85,391.58 C371.74,392.15 371.24,392.65 370.68,393.43 C369.46,395.10 369.13,395.12 366.43,393.69 C364.82,392.84 359.67,388.96 355.00,385.06 C340.37,372.85 338.66,371.48 332.50,367.02 C329.20,364.63 323.80,360.34 320.50,357.49 C317.20,354.63 310.23,349.03 305.00,345.05 C299.77,341.06 293.48,335.99 291.00,333.78 C280.87,324.72 251.38,302.01 249.75,302.00 C247.78,302.00 247.60,303.89 248.64,313.85 C249.18,319.04 249.59,320.00 251.21,320.00 C253.04,320.00 253.05,320.09 251.42,321.72 C249.86,323.28 249.76,325.33 250.38,343.83 C250.87,358.63 250.74,364.61 249.91,365.61 C248.99,366.72 244.36,367.00 227.21,367.00 L 205.66 367.00 L 199.05 360.25 C181.87,342.71 171.00,330.63 171.00,329.11 C171.00,328.19 178.30,320.93 187.22,312.97 C196.14,305.01 207.05,295.09 211.47,290.91 C215.89,286.74 226.25,277.34 234.50,270.02 C242.75,262.70 250.76,255.43 252.30,253.86 C254.87,251.23 255.69,251.00 262.38,251.00 C266.39,251.00 272.24,250.48 275.38,249.85 L 281.10 248.70 L 284.64 252.10 C290.24,257.48 297.19,273.46 295.66,277.44 C294.67,280.02 287.24,282.78 279.20,283.56 C274.32,284.03 272.00,284.66 272.20,285.46 C272.60,287.06 286.93,299.20 316.50,323.00 C330.14,333.98 339.52,341.68 341.11,343.18 C341.87,343.91 344.15,345.73 346.16,347.23 C348.18,348.74 350.43,350.56 351.16,351.27 C351.90,351.99 355.88,355.21 360.00,358.43 C364.12,361.66 367.95,364.81 368.50,365.43 C369.05,366.06 372.42,368.79 376.00,371.51 C379.58,374.23 382.95,376.80 383.50,377.24 C384.05,377.67 385.74,378.95 387.25,380.08 C390.58,382.58 390.79,385.51 387.75,387.13 C385.39,388.39 372.86,397.77 372.00,398.93 C371.73,399.30 369.39,400.81 366.82,402.30 ZM 333.50 331.34 C338.45,335.62 339.53,334.96 341.83,326.25 C344.13,317.54 345.89,306.21 346.21,298.00 C346.48,291.26 344.44,275.23 342.38,267.91 C341.55,264.94 340.50,261.10 340.07,259.39 C339.34,256.55 335.35,247.66 333.15,244.00 C332.66,243.18 331.21,240.48 329.94,238.00 C325.81,229.94 321.52,224.29 312.27,214.75 C308.67,211.04 305.01,208.00 304.13,208.00 C302.35,208.00 281.00,228.83 281.00,230.56 C281.00,231.16 283.69,235.00 286.97,239.08 C294.09,247.94 298.86,257.30 302.44,269.50 C303.90,274.45 305.75,280.52 306.55,283.00 C307.46,285.82 308.01,291.55 308.00,298.32 C308.00,305.69 308.40,309.52 309.25,310.33 C309.94,310.98 312.08,312.80 314.00,314.38 C315.92,315.95 320.42,319.83 324.00,322.99 C327.58,326.15 331.85,329.91 333.50,331.34 ZM 219.63 84.32 C210.91,95.14 203.22,104.00 202.54,104.00 C200.93,104.00 199.77,102.60 190.49,89.50 C186.21,83.45 181.05,76.25 179.03,73.50 C177.01,70.75 170.93,62.20 165.51,54.50 C160.08,46.80 154.82,39.56 153.80,38.41 C152.72,37.19 152.21,35.62 152.58,34.66 C153.15,33.16 156.36,33.01 186.36,33.13 C230.00,33.30 257.25,34.22 257.68,35.54 C257.87,36.10 255.78,39.25 253.03,42.54 C250.28,45.82 246.84,50.30 245.37,52.50 C243.91,54.70 241.09,58.33 239.11,60.57 C237.12,62.80 228.36,73.49 219.63,84.32 ZM 474.49 136.02 C473.74,137.23 472.24,137.17 469.00,135.82 C464.42,133.90 442.69,125.94 419.50,117.68 C407.49,113.40 403.57,111.39 399.47,107.39 C397.29,105.26 391.00,99.54 385.50,94.67 C380.00,89.80 375.12,84.85 374.66,83.66 C374.20,82.47 372.53,76.55 370.97,70.50 C369.40,64.45 366.92,55.22 365.46,50.00 C361.53,35.95 359.89,28.78 360.47,28.19 C362.01,26.66 370.10,33.04 383.00,45.97 C390.98,53.96 402.69,65.45 409.02,71.50 L 411.07 73.47 C472.37,132.07 475.12,134.69 474.60,135.83 C474.57,135.90 474.53,135.96 474.49,136.02 ZM 90.68 498.75 C89.56,499.99 88.28,501.00 87.83,501.00 C86.35,501.00 86.95,495.95 88.50,495.36 C89.32,495.05 90.00,494.13 90.00,493.33 C90.00,492.54 89.55,492.16 89.00,492.50 C88.45,492.84 88.00,492.63 88.00,492.03 C88.00,491.43 88.64,490.69 89.42,490.39 C90.21,490.09 91.11,489.16 91.43,488.31 C91.83,487.29 91.57,486.95 90.66,487.30 C89.59,487.71 89.46,487.05 90.07,484.16 C94.27,464.17 99.40,439.96 101.87,428.50 C103.52,420.80 105.39,412.02 106.00,409.00 C106.62,405.98 107.60,402.26 108.19,400.75 L 109.24 398.00 L 164.08 398.00 C224.01,398.00 228.66,397.68 244.57,392.50 C261.51,386.97 270.98,381.26 285.00,368.10 C288.58,364.75 291.78,362.00 292.13,362.00 C293.88,362.00 295.09,364.96 294.09,366.82 C293.01,368.86 281.07,379.69 274.99,384.15 C269.97,387.84 257.50,393.96 251.57,395.64 C248.78,396.43 244.93,397.55 243.00,398.12 C233.52,400.95 226.62,401.32 172.58,401.89 L 115.66 402.50 L 113.44 412.00 C110.34,425.22 100.16,465.86 99.04,469.50 C97.32,475.09 96.74,480.00 97.79,480.00 C98.74,480.00 103.53,473.08 117.48,451.50 C120.69,446.55 128.07,435.22 133.90,426.32 L 144.50 410.15 L 187.50 409.73 C214.85,409.47 232.32,408.89 235.50,408.16 C247.05,405.50 248.76,405.04 254.19,403.14 C269.15,397.89 285.53,387.98 296.49,377.55 C302.60,371.72 303.57,371.14 304.89,372.46 C306.20,373.77 305.91,374.49 302.34,378.72 C298.81,382.91 284.20,394.02 280.00,395.72 C279.17,396.05 277.35,397.12 275.94,398.09 C271.92,400.87 253.67,407.93 243.11,410.79 C233.63,413.36 232.92,413.40 189.53,413.95 C146.53,414.49 145.53,414.55 144.53,416.54 C143.96,417.67 140.53,423.07 136.91,428.54 C133.28,434.02 127.70,442.55 124.51,447.50 C121.32,452.45 115.91,460.77 112.49,466.00 C109.07,471.23 103.22,480.23 99.49,486.00 C95.76,491.77 91.79,497.51 90.68,498.75 ZM 377.00 489.15 C377.00,489.62 399.50,490.00 427.00,490.00 C454.50,490.00 476.99,489.66 476.98,489.25 C476.96,487.86 475.53,486.43 463.16,475.45 C456.38,469.43 448.73,462.60 446.16,460.29 C443.60,457.97 440.52,456.06 439.33,456.04 C437.28,456.00 423.42,462.80 393.50,478.49 C380.48,485.32 377.00,487.57 377.00,489.15 ZM 198.50 379.34 C198.50,380.58 194.82,381.48 193.82,380.49 C193.49,380.16 192.16,379.77 190.86,379.63 C189.34,379.47 184.16,374.94 176.34,366.94 C151.63,341.66 141.00,330.15 141.00,328.68 C141.00,327.43 160.32,309.38 177.06,295.00 C181.86,290.88 190.70,283.00 196.72,277.50 C202.73,272.00 211.89,263.83 217.07,259.35 C226.20,251.46 230.55,247.44 247.50,231.17 C251.90,226.94 262.92,216.97 272.00,208.99 C281.08,201.02 290.90,192.10 293.84,189.18 C297.01,186.02 299.75,184.08 300.59,184.40 C302.93,185.30 302.21,187.06 297.72,191.38 C286.37,202.32 275.35,212.65 263.50,223.48 C239.80,245.12 237.56,247.19 229.00,255.39 C224.32,259.86 216.94,266.67 212.60,270.51 C208.25,274.36 204.20,277.95 203.60,278.50 C202.99,279.06 196.88,284.64 190.00,290.92 C183.12,297.19 173.23,306.27 168.00,311.09 C162.77,315.91 157.26,320.82 155.75,322.00 C154.24,323.18 153.00,325.04 153.00,326.12 C153.00,327.21 156.04,331.36 159.75,335.33 C163.46,339.31 170.77,347.46 176.00,353.44 C181.23,359.41 188.43,367.43 192.00,371.24 C195.57,375.06 198.50,378.70 198.50,379.34 ZM 200.75 100.27 C202.79,102.54 203.17,102.36 207.17,97.29 C209.00,94.98 216.80,85.38 224.50,75.95 C232.20,66.52 240.30,56.43 242.50,53.53 C244.70,50.62 248.41,45.74 250.75,42.67 C253.09,39.60 255.00,36.84 255.00,36.54 C255.00,36.24 254.06,36.00 252.92,36.00 C251.72,36.00 246.35,39.93 240.27,45.25 C216.64,65.94 200.73,78.95 199.79,78.37 C198.51,77.58 167.55,45.89 162.54,40.25 C160.46,37.91 157.92,36.00 156.88,36.00 C154.30,36.00 154.51,37.00 157.96,41.04 C159.59,42.94 160.94,44.85 160.96,45.28 C160.98,45.71 162.69,48.25 164.75,50.93 C166.81,53.61 172.55,61.50 177.50,68.47 C189.73,85.70 198.83,98.14 200.75,100.27 ZM 463.83 132.24 C464.27,133.23 466.00,133.23 466.00,132.24 C466.00,131.49 463.97,130.01 458.86,127.04 C457.41,126.19 449.76,121.62 441.86,116.89 C423.36,105.79 394.10,88.55 391.43,87.18 C390.29,86.60 388.55,84.18 387.56,81.81 C383.86,72.92 371.93,45.26 367.92,36.25 C366.88,33.91 365.35,32.00 364.51,32.00 C362.56,32.00 362.62,32.96 365.12,42.00 C366.26,46.12 367.80,52.20 368.55,55.50 C369.29,58.80 370.78,64.20 371.84,67.50 C372.91,70.80 374.32,75.84 374.98,78.71 C376.08,83.50 377.00,84.67 386.34,93.25 C401.14,106.83 407.00,111.41 411.50,112.90 C415.14,114.11 422.93,117.00 444.00,124.99 C448.12,126.55 454.20,128.65 457.50,129.65 C460.80,130.65 463.65,131.82 463.83,132.24 ZM 334.00 207.62 C334.00,211.62 333.59,215.14 333.08,215.45 C331.27,216.57 329.00,212.84 328.95,208.68 C328.87,202.28 326.49,191.01 324.17,186.00 C321.33,179.87 314.64,172.04 309.75,169.12 C303.34,165.30 292.08,161.32 282.93,159.65 C276.21,158.42 253.75,157.39 244.83,157.90 C243.33,157.99 243.14,160.00 243.04,177.25 C242.94,195.09 242.79,196.65 240.94,198.50 C239.21,200.23 238.80,200.30 237.98,199.00 C237.46,198.17 237.04,188.11 237.05,176.50 C237.05,174.75 237.05,173.12 237.04,171.60 C237.01,160.17 237.00,154.93 239.61,152.48 C241.82,150.41 245.93,150.35 253.52,150.24 C254.70,150.22 255.98,150.21 257.35,150.18 C271.33,149.90 274.53,150.14 281.48,152.00 C301.45,157.33 315.79,164.44 322.86,172.49 C329.73,180.32 334.00,193.79 334.00,207.62 ZM 185.21 55.45 C192.65,62.90 199.24,69.00 199.86,69.00 C200.47,69.00 203.79,66.64 207.24,63.75 C210.68,60.86 216.09,56.57 219.25,54.22 C222.41,51.86 225.00,49.60 225.00,49.20 C225.00,48.79 227.04,47.35 229.53,45.99 C232.27,44.49 233.94,42.92 233.76,42.01 C233.52,40.72 229.19,40.43 203.99,40.00 C181.94,39.63 174.14,39.80 173.09,40.70 C171.93,41.68 174.04,44.25 185.21,55.45 ZM 480.41 480.93 C484.69,484.33 486.20,484.67 487.89,482.63 C489.01,481.28 488.45,478.00 487.10,478.00 C486.73,478.00 484.41,476.16 481.96,473.92 C479.51,471.67 475.28,467.96 472.57,465.67 C469.86,463.38 461.90,456.55 454.89,450.50 C437.29,435.31 434.35,433.00 432.67,433.00 C431.24,433.00 430.27,434.00 421.00,445.02 C418.52,447.97 414.76,452.31 412.64,454.67 C410.35,457.22 409.01,459.57 409.34,460.45 C409.81,461.66 411.25,461.27 417.21,458.33 C429.50,452.25 439.18,448.00 440.71,448.00 C441.52,448.00 447.45,452.61 453.90,458.25 C469.26,471.68 475.71,477.19 480.41,480.93 ZM 120.51 365.98 C120.14,366.59 114.79,367.00 107.34,367.00 L 94.81 367.00 L 87.90 360.34 C84.11,356.67 81.01,352.96 81.02,352.09 C81.02,351.21 83.95,347.45 87.52,343.72 C93.04,337.94 94.29,337.08 95.92,337.96 C97.70,338.91 112.43,354.44 118.47,361.73 C119.94,363.51 120.86,365.42 120.51,365.98 ZM 433.00 106.00 C434.38,107.08 435.84,107.97 436.25,107.98 C438.73,108.05 435.23,103.81 420.59,89.05 C411.57,79.95 400.00,68.11 394.88,62.75 C381.00,48.20 379.58,49.50 387.98,69.05 L 393.76 82.49 L 400.13 86.59 C409.04,92.33 428.87,104.00 429.76,104.02 C430.17,104.03 431.62,104.92 433.00,106.00 ZM 323.41 305.02 C322.70,312.41 322.15,314.55 320.91,314.78 C317.80,315.37 316.68,312.37 317.33,305.23 C318.63,291.02 313.16,267.12 305.73,254.50 C299.37,243.70 292.92,233.72 290.78,231.35 C288.52,228.84 288.74,224.67 291.16,224.20 C294.24,223.62 309.89,247.79 316.27,263.00 C322.13,276.96 324.66,291.90 323.41,305.02 ZM 336.95 323.75 C335.82,326.97 334.62,327.81 333.58,326.13 C333.28,325.65 333.54,321.26 334.14,316.38 C334.77,311.34 335.01,300.80 334.71,292.00 C334.24,278.02 333.87,275.52 330.93,266.50 C326.18,251.94 319.99,240.86 304.48,219.19 C302.16,215.93 302.10,212.94 304.36,213.06 C304.99,213.09 307.52,215.59 310.00,218.61 C312.48,221.64 315.02,224.69 315.66,225.40 C318.43,228.45 327.57,244.80 331.10,252.99 C335.32,262.77 338.51,276.85 339.49,290.00 C340.19,299.39 338.74,318.68 336.95,323.75 ZM 89.88 360.29 L 94.91 365.00 L 106.46 365.00 C113.81,365.00 118.00,364.62 118.00,363.96 C118.00,363.38 115.96,360.80 113.48,358.21 C110.99,355.62 106.19,350.46 102.82,346.75 C99.28,342.86 95.86,340.00 94.75,340.00 C93.04,340.00 85.85,346.91 83.71,350.61 C82.59,352.53 84.08,354.87 89.88,360.29 ZM 348.80 158.80 C348.14,159.46 346.90,159.99 346.05,159.98 C344.08,159.95 319.61,137.69 319.17,135.52 C318.82,133.83 321.51,128.99 322.77,129.02 C323.49,129.03 324.82,130.19 341.38,145.41 C349.98,153.31 351.52,156.08 348.80,158.80 ZM 340.53 154.02 C345.69,158.49 348.00,159.05 348.00,155.83 C348.00,152.66 326.12,132.00 322.75,132.00 C319.34,132.00 319.80,135.43 323.69,138.91 C325.78,140.78 329.40,144.06 331.72,146.18 C334.04,148.31 338.00,151.84 340.53,154.02 ZM 274.49 260.11 C266.50,261.45 254.22,262.17 253.71,261.33 C253.42,260.86 253.83,259.59 254.63,258.49 C255.90,256.76 257.51,256.47 267.63,256.14 C278.41,255.80 279.17,255.90 278.84,257.61 C278.59,258.88 277.24,259.65 274.49,260.11 ZM 406.02 453.25 C406.01,453.66 406.52,454.00 407.16,454.00 C408.36,454.00 417.98,444.04 417.99,442.78 C418.00,442.39 421.15,438.50 425.00,434.14 C431.61,426.65 433.20,424.00 431.08,424.00 C429.69,424.00 406.06,451.58 406.02,453.25 ZM 259.27 188.25 C257.44,190.28 254.11,190.57 253.55,188.75 C251.01,180.46 252.96,177.10 258.87,179.59 C261.84,180.84 262.14,181.31 261.53,183.75 C261.15,185.26 260.13,187.29 259.27,188.25 ZM 254.42 185.52 C254.96,187.70 255.33,187.90 257.08,186.96 C260.03,185.38 260.64,182.94 258.47,181.36 C257.45,180.61 256.24,180.00 255.78,180.00 C254.42,180.00 253.73,182.80 254.42,185.52 ZM 91.08 482.42 C91.04,483.47 91.27,484.06 91.60,483.73 C91.94,483.40 91.97,482.53 91.68,481.81 C91.36,481.01 91.13,481.25 91.08,482.42 Z" fill="rgb(247,165,116)"/>
<path d="M 81.53 440.75 C81.91,401.01 82.54,368.16 82.92,367.75 C83.30,367.33 89.08,372.42 95.76,379.05 L 107.92 391.11 L 169.21 390.72 C227.73,390.35 230.79,390.24 237.00,388.27 C248.01,384.78 254.40,382.13 259.33,379.00 C261.94,377.35 264.34,376.00 264.67,376.00 C266.03,376.00 279.51,364.25 283.27,359.79 C285.50,357.16 287.81,355.00 288.42,355.00 C289.59,355.00 309.99,371.41 311.23,373.35 C312.50,375.33 312.07,377.93 310.19,379.75 C300.95,388.67 288.47,397.41 277.00,403.01 C270.87,406.01 258.36,410.62 247.00,414.09 C239.90,416.25 237.41,416.40 200.18,416.94 C163.00,417.47 160.80,417.60 159.80,419.39 C159.22,420.42 157.30,422.90 155.54,424.89 C153.77,426.87 145.89,436.60 138.01,446.50 C130.14,456.40 121.15,467.42 118.05,471.00 C114.95,474.58 111.71,478.62 110.85,480.00 C109.98,481.38 106.18,486.16 102.39,490.62 C98.60,495.09 93.47,501.32 91.00,504.46 C84.90,512.20 84.10,513.00 82.34,513.00 C80.99,513.00 80.90,505.01 81.53,440.75 ZM 529.76 241.43 C529.44,241.11 526.78,240.48 523.84,240.02 C520.90,239.56 515.12,238.50 511.00,237.65 C506.88,236.80 498.33,235.14 492.00,233.97 C479.90,231.72 454.27,226.76 445.07,224.88 C440.32,223.91 438.49,222.74 430.57,215.57 C425.58,211.06 419.25,205.37 416.51,202.93 C413.77,200.50 408.37,195.55 404.51,191.94 C400.65,188.33 393.45,181.84 388.50,177.52 C383.55,173.19 374.55,165.06 368.50,159.44 C362.45,153.82 355.92,147.93 354.00,146.36 C352.08,144.80 350.01,143.06 349.41,142.51 C335.64,129.77 327.64,122.53 324.00,119.50 C321.52,117.45 315.62,112.10 310.88,107.63 C293.62,91.35 282.77,81.48 281.15,80.59 C280.24,80.08 279.17,79.18 278.77,78.59 C277.76,77.11 277.80,10.24 278.80,9.62 C279.24,9.35 280.08,9.44 280.67,9.82 C282.01,10.67 289.08,24.79 291.52,31.50 C292.53,34.25 293.65,36.95 294.03,37.50 C294.40,38.05 297.95,45.92 301.91,55.00 C305.88,64.07 310.16,73.75 311.42,76.50 C312.68,79.25 315.16,84.65 316.92,88.50 C319.86,94.90 320.99,96.18 330.24,103.50 C340.03,111.24 350.85,120.54 367.50,135.53 C371.90,139.49 380.23,146.87 386.00,151.92 C400.63,164.71 407.70,170.91 412.43,175.10 C414.67,177.08 421.00,182.65 426.50,187.48 C432.00,192.31 437.46,197.29 438.62,198.54 C441.62,201.75 442.83,202.30 478.50,216.44 C522.75,233.98 535.27,239.30 535.75,240.75 C536.17,242.01 530.94,242.60 529.76,241.43 ZM 249.50 485.46 C217.60,453.37 191.50,426.52 191.50,425.80 C191.50,424.76 196.93,424.51 218.42,424.57 L 245.34 424.64 L 250.92 430.59 C268.00,448.79 286.03,469.40 285.71,470.38 C285.51,471.00 284.25,471.63 282.90,471.79 C280.96,472.03 279.27,470.70 274.62,465.29 C271.42,461.56 264.63,454.00 259.54,448.50 C254.45,443.00 248.08,435.93 245.39,432.78 C241.93,428.74 239.55,426.87 237.26,426.42 C233.71,425.72 231.00,426.38 231.00,427.94 C231.00,429.39 283.30,481.83 284.91,482.00 C284.23,482.00 271.62,469.85 256.88,454.99 C242.14,440.14 228.91,427.54 227.48,426.99 C223.81,425.60 222.03,425.76 221.35,427.53 C221.05,428.31 221.22,429.08 226.11,434.42 C221.99,430.26 218.39,427.08 217.50,426.88 C214.86,426.28 211.81,426.94 212.19,428.04 C212.49,428.90 226.71,444.12 240.50,458.36 C248.07,466.17 253.72,472.20 272.99,493.01 C290.81,512.27 296.59,518.00 298.17,518.00 C298.93,518.00 303.62,514.06 308.58,509.25 C313.54,504.44 329.51,489.28 344.05,475.58 C358.60,461.87 375.42,445.78 381.43,439.83 C387.44,433.87 392.73,429.00 393.18,429.00 C393.63,429.00 394.00,428.52 394.00,427.93 C394.00,426.73 396.47,424.00 397.56,424.00 C397.95,424.00 399.25,422.99 400.44,421.75 C401.63,420.51 409.78,412.75 418.55,404.51 C427.32,396.27 438.77,385.38 444.00,380.33 C455.15,369.53 458.62,366.71 460.11,367.20 C461.29,367.60 459.19,370.30 442.95,389.21 C437.15,395.97 427.68,407.12 421.89,414.00 C410.29,427.79 409.22,429.06 402.40,436.96 C399.80,439.97 397.32,442.89 396.88,443.46 C396.45,444.03 392.56,448.55 388.25,453.50 C383.94,458.45 376.17,467.67 370.98,474.00 C365.79,480.33 360.58,486.62 359.39,488.00 C347.20,502.13 335.48,515.60 335.01,516.00 C334.69,516.28 332.65,518.75 330.48,521.50 C328.30,524.25 325.62,527.45 324.51,528.61 C323.41,529.77 320.02,533.68 317.00,537.30 C313.53,541.44 310.76,543.86 309.50,543.84 C308.21,543.82 287.01,523.20 249.50,485.46 ZM 90.68 498.75 C91.79,497.51 95.76,491.77 99.49,486.00 C103.22,480.23 109.07,471.23 112.49,466.00 C115.91,460.77 121.32,452.45 124.51,447.50 C127.70,442.55 133.28,434.02 136.91,428.54 C140.53,423.07 143.96,417.67 144.53,416.54 C145.53,414.55 146.53,414.49 189.53,413.95 C232.92,413.40 233.63,413.36 243.11,410.79 C253.67,407.93 271.92,400.87 275.94,398.09 C277.35,397.12 279.17,396.05 280.00,395.72 C284.20,394.02 298.81,382.91 302.34,378.72 C305.91,374.49 306.20,373.77 304.89,372.46 C303.66,371.23 302.74,371.65 297.68,376.42 C300.26,373.91 302.00,371.88 302.00,371.16 C302.00,369.25 299.10,366.00 297.38,366.00 C296.66,366.00 292.79,368.97 288.78,372.61 C286.59,374.60 284.44,376.46 282.32,378.20 C287.76,373.50 293.36,368.19 294.09,366.82 C295.09,364.96 293.88,362.00 292.13,362.00 C291.78,362.00 288.58,364.75 285.00,368.10 C270.98,381.26 261.51,386.97 244.57,392.50 C228.66,397.68 224.01,398.00 164.08,398.00 L 109.24 398.00 L 108.19 400.75 C107.60,402.26 106.62,405.98 106.00,409.00 C105.39,412.02 103.52,420.80 101.87,428.50 C99.40,439.96 94.27,464.17 90.07,484.16 C89.46,487.05 89.59,487.71 90.66,487.30 C91.57,486.95 91.83,487.29 91.43,488.31 C91.11,489.16 90.21,490.09 89.42,490.39 C88.64,490.69 88.00,491.43 88.00,492.03 C88.00,492.63 88.45,492.84 89.00,492.50 C89.55,492.16 90.00,492.54 90.00,493.33 C90.00,494.13 89.32,495.05 88.50,495.36 C86.95,495.95 86.35,501.00 87.83,501.00 C88.28,501.00 89.56,499.99 90.68,498.75 ZM 139.62 369.43 C125.61,355.40 113.77,342.92 87.99,315.00 C80.63,307.02 72.22,298.13 69.30,295.23 C66.39,292.33 64.00,289.52 64.00,288.98 C64.00,288.44 63.58,288.00 63.07,288.00 C62.56,288.00 57.53,282.94 51.89,276.75 C46.24,270.56 37.10,260.72 31.56,254.88 C13.85,236.17 12.00,234.06 12.00,232.43 C12.00,231.10 12.73,230.94 16.25,231.51 C25.92,233.08 28.17,234.73 43.50,251.56 C48.45,256.99 60.60,270.02 70.50,280.52 C80.40,291.01 91.88,303.35 96.00,307.95 C100.12,312.54 104.55,317.24 105.84,318.40 C108.09,320.42 144.66,358.88 157.87,373.13 C163.88,379.61 164.50,380.00 168.62,380.00 C172.05,380.00 173.00,379.64 173.00,378.33 C173.00,377.65 170.49,374.50 166.91,370.57 C173.96,377.72 176.53,379.68 179.00,380.11 C184.60,381.08 184.69,381.07 186.00,379.50 C186.92,378.40 185.82,376.68 179.15,369.78 C185.40,376.01 189.53,379.49 190.86,379.63 C192.16,379.77 193.49,380.16 193.82,380.49 C194.82,381.48 198.50,380.58 198.50,379.34 C198.50,378.70 195.57,375.06 192.00,371.24 C188.43,367.43 181.23,359.41 176.00,353.44 C170.77,347.46 163.46,339.31 159.75,335.33 C156.04,331.36 153.00,327.21 153.00,326.12 C153.00,325.04 154.24,323.18 155.75,322.00 C157.26,320.82 162.77,315.91 168.00,311.09 C173.23,306.27 183.12,297.19 190.00,290.92 C196.88,284.64 202.99,279.06 203.60,278.50 C204.20,277.95 208.25,274.36 212.60,270.51 C216.94,266.67 224.32,259.86 229.00,255.39 C237.56,247.19 239.80,245.12 263.50,223.48 C275.35,212.65 286.37,202.32 297.72,191.38 C302.21,187.06 302.93,185.30 300.59,184.40 C299.79,184.09 297.26,185.84 294.28,188.75 C297.41,185.51 298.00,184.13 298.00,182.66 C298.00,180.60 297.13,179.60 293.92,177.96 C293.76,177.88 293.60,177.79 293.44,177.71 C292.01,176.98 291.10,176.51 290.20,176.52 C288.86,176.53 287.53,177.58 284.52,180.32 C287.08,177.68 286.93,176.57 285.39,174.88 C283.84,173.16 283.85,173.00 285.49,172.37 C287.74,171.50 293.08,173.35 299.79,177.33 C303.97,179.82 305.59,181.55 307.54,185.67 C308.89,188.53 310.00,191.28 310.00,191.78 C310.00,192.70 300.88,201.61 293.36,208.04 C291.09,209.98 285.46,215.00 280.86,219.19 C262.07,236.32 245.26,251.49 209.94,283.17 C199.11,292.89 189.16,301.89 187.85,303.17 C186.53,304.45 180.17,310.21 173.72,315.96 C167.28,321.71 162.00,327.15 162.00,328.06 C162.00,329.56 165.63,333.97 178.00,347.48 C188.07,358.48 191.81,362.64 194.10,365.40 C195.42,367.00 198.64,370.78 201.25,373.81 C203.86,376.84 206.00,379.66 206.00,380.08 C206.00,380.51 205.30,381.56 204.44,382.42 C203.09,383.77 199.45,383.96 178.31,383.77 L 153.75 383.56 ZM 333.50 331.34 C331.85,329.91 327.58,326.15 324.00,322.99 C320.42,319.83 315.92,315.95 314.00,314.38 C312.08,312.80 309.94,310.98 309.25,310.33 C308.40,309.52 308.00,305.69 308.00,298.32 C308.01,291.55 307.46,285.82 306.55,283.00 C305.75,280.52 303.90,274.45 302.44,269.50 C298.86,257.30 294.09,247.94 286.97,239.08 C283.69,235.00 281.00,231.16 281.00,230.56 C281.00,228.83 302.35,208.00 304.13,208.00 C305.01,208.00 308.67,211.04 312.27,214.75 C321.52,224.29 325.81,229.94 329.94,238.00 C331.21,240.48 332.66,243.18 333.15,244.00 C335.35,247.66 339.34,256.55 340.07,259.39 C340.50,261.10 341.55,264.94 342.38,267.91 C344.44,275.23 346.48,291.26 346.21,298.00 C345.89,306.21 344.13,317.54 341.83,326.25 C339.53,334.96 338.45,335.62 333.50,331.34 ZM 339.80 238.75 C338.57,236.41 336.95,233.31 336.21,231.86 C335.47,230.41 332.57,226.38 329.77,222.91 C324.92,216.89 324.70,216.34 324.88,211.05 C325.14,203.40 323.67,196.58 320.13,188.96 C314.82,177.56 310.68,173.45 297.84,166.87 L 291.50 163.62 L 271.57 163.06 C255.80,162.62 251.36,162.78 250.32,163.82 C249.59,164.55 248.98,165.45 248.96,165.82 C248.93,166.19 248.73,173.25 248.49,181.50 C248.07,196.46 248.06,196.51 245.29,198.84 C238.00,204.97 224.33,216.74 222.11,218.79 C220.74,220.05 218.92,220.94 218.06,220.77 C216.69,220.50 216.49,217.01 216.41,192.48 C216.36,177.09 216.25,163.49 216.16,162.25 C216.00,160.00 215.99,160.00 197.08,160.00 L 178.16 160.00 L 171.81 151.25 C168.33,146.44 164.13,140.48 162.50,138.00 C160.86,135.52 155.02,127.38 149.51,119.90 C144.00,112.43 136.12,101.43 132.00,95.46 C127.88,89.50 122.47,81.89 119.98,78.56 C117.50,75.23 111.97,67.45 107.69,61.28 C103.42,55.11 99.33,49.48 98.62,48.76 C97.90,48.04 96.14,45.59 94.70,43.31 C93.26,41.03 91.61,38.88 91.04,38.53 C88.83,37.16 90.00,35.00 92.97,35.00 C95.44,35.00 96.53,35.88 99.44,40.25 C101.36,43.14 106.51,50.45 110.88,56.50 C115.24,62.55 121.35,71.10 124.45,75.50 C127.56,79.90 131.43,85.30 133.06,87.50 C134.69,89.70 138.07,94.43 140.56,98.00 C155.55,119.46 173.67,144.71 177.72,149.75 L 181.13 154.00 L 220.00 154.00 L 220.10 161.25 C220.15,165.24 220.16,178.18 220.12,190.00 C220.07,201.82 220.45,212.16 220.96,212.97 C221.75,214.22 222.30,214.07 224.45,212.04 L 227.01 209.64 L 227.00 207.26 C227.11,208.83 230.27,207.87 233.55,205.25 L 237.00 202.50 L 237.03 179.00 C237.04,176.89 237.03,174.93 237.03,173.12 C237.02,169.79 237.01,166.94 237.06,164.51 C237.03,166.56 237.03,168.91 237.04,171.60 C237.05,173.12 237.05,174.75 237.05,176.50 C237.04,188.11 237.46,198.17 237.98,199.00 C238.80,200.30 239.21,200.23 240.94,198.50 C242.79,196.65 242.94,195.09 243.04,177.25 C243.14,160.00 243.33,157.99 244.83,157.90 C253.75,157.39 276.21,158.42 282.93,159.65 C292.08,161.32 303.34,165.30 309.75,169.12 C314.64,172.04 321.33,179.87 324.17,186.00 C326.49,191.01 328.87,202.28 328.95,208.68 C329.00,212.84 331.27,216.57 333.08,215.45 C333.53,215.17 333.91,212.33 333.99,208.88 C334.00,209.46 334.00,210.02 334.00,210.58 C334.00,220.58 334.06,220.86 337.05,224.05 C341.86,229.21 342.51,227.44 342.46,209.20 C342.45,205.35 342.42,202.28 342.32,199.70 C342.93,207.87 342.97,217.92 342.14,222.88 C340.32,233.71 344.56,236.69 346.85,226.20 C351.23,206.14 350.61,194.93 344.42,182.40 C340.48,174.44 330.90,161.75 324.71,156.32 C316.57,149.17 302.53,142.99 285.21,138.94 C277.85,137.22 273.05,137.00 242.40,137.00 L 207.89 137.00 L 205.06 133.91 C203.51,132.21 201.65,129.62 200.92,128.16 C200.20,126.70 198.56,124.05 197.28,122.29 C196.00,120.52 190.71,112.64 185.52,104.79 C180.33,96.93 175.14,89.15 173.98,87.50 C172.02,84.70 155.26,60.49 147.82,49.70 C145.99,47.06 143.26,43.28 141.75,41.31 C140.24,39.34 139.00,37.11 139.00,36.36 C139.00,34.08 143.71,34.80 145.68,37.38 C147.55,39.84 147.77,40.15 153.27,48.29 C158.60,56.19 173.38,77.50 184.97,94.00 C190.96,102.53 198.15,113.32 200.96,118.00 C203.77,122.68 206.93,127.62 207.98,129.00 L 209.88 131.50 L 247.19 132.12 C271.04,132.51 286.30,133.17 289.50,133.95 C308.82,138.66 314.83,141.43 326.42,150.95 C339.35,161.57 349.57,175.94 352.08,187.00 C352.51,188.93 353.39,192.52 354.03,195.00 C355.38,200.25 354.81,216.11 353.01,223.50 C351.24,230.76 345.29,243.00 343.53,243.00 C342.71,243.00 341.03,241.09 339.80,238.75 ZM 82.89 223.25 C82.31,219.16 83.37,84.28 83.99,83.64 C85.34,82.24 86.65,85.87 88.97,97.50 C90.18,103.55 92.01,112.32 93.05,117.00 C94.09,121.68 96.48,133.15 98.38,142.50 C106.34,181.78 108.23,190.54 108.88,191.23 C109.90,192.32 203.27,194.13 204.31,193.09 C204.79,192.61 205.02,191.38 204.82,190.36 C204.75,189.98 204.80,189.68 204.70,189.43 C204.38,188.58 202.41,188.35 188.47,188.24 C195.63,188.26 200.35,188.22 201.00,188.12 C204.26,187.63 205.27,186.63 204.83,184.36 C204.50,182.63 202.87,182.46 181.70,182.00 L 182.01 182.00 C202.73,182.00 203.96,181.89 205.28,180.01 C206.05,178.91 206.98,178.31 207.34,178.67 C207.70,179.04 208.00,184.43 208.00,190.67 L 208.00 202.00 L 107.69 202.00 L 96.54 213.00 C86.43,222.98 83.20,225.41 82.89,223.25 ZM 323.41 305.02 C323.49,304.14 323.56,303.25 323.61,302.36 C323.58,303.46 323.53,304.57 323.47,305.69 L 322.75 318.15 L 326.13 321.03 C330.27,324.58 332.55,324.78 333.61,321.66 C333.42,324.09 333.40,325.84 333.58,326.13 C334.62,327.81 335.82,326.97 336.95,323.75 C338.74,318.68 340.19,299.39 339.49,290.00 C338.51,276.85 335.32,262.77 331.10,252.99 C327.57,244.80 318.43,228.45 315.66,225.40 C315.02,224.69 312.48,221.64 310.00,218.61 C307.52,215.59 304.99,213.09 304.36,213.06 C302.10,212.94 302.16,215.93 304.48,219.19 C306.13,221.48 307.66,223.66 309.11,225.74 C308.51,224.92 307.89,224.09 307.26,223.25 C301.30,215.30 298.89,214.29 295.32,218.25 C292.10,221.83 291.87,222.59 296.62,229.30 C294.08,226.02 292.07,224.03 291.16,224.20 C288.74,224.67 288.52,228.84 290.78,231.35 C292.92,233.72 299.37,243.70 305.73,254.50 C313.16,267.12 318.63,291.02 317.33,305.23 C316.68,312.37 317.80,315.37 320.91,314.78 C322.15,314.55 322.70,312.41 323.41,305.02 ZM 377.00 489.15 C377.00,487.57 380.48,485.32 393.50,478.49 C423.42,462.80 437.28,456.00 439.33,456.04 C440.52,456.06 443.60,457.97 446.16,460.29 C448.73,462.60 456.38,469.43 463.16,475.45 C475.53,486.43 476.96,487.86 476.98,489.25 C476.99,489.66 454.50,490.00 427.00,490.00 C399.50,490.00 377.00,489.62 377.00,489.15 ZM 252.40 320.68 C252.90,320.05 252.53,320.00 251.21,320.00 C249.59,320.00 249.18,319.04 248.64,313.85 C247.60,303.89 247.78,302.00 249.75,302.00 C251.38,302.01 280.87,324.72 291.00,333.78 C293.48,335.99 299.77,341.06 305.00,345.05 C310.23,349.03 317.20,354.63 320.50,357.49 C323.80,360.34 329.20,364.63 332.50,367.02 C338.66,371.48 340.37,372.85 355.00,385.06 C359.67,388.96 364.82,392.84 366.43,393.69 C369.13,395.12 369.46,395.10 370.68,393.43 C371.24,392.65 371.74,392.15 371.85,391.58 C371.96,390.98 371.64,390.30 370.52,389.13 C373.18,391.43 373.73,391.19 377.05,389.47 C380.43,387.73 380.88,385.03 378.08,383.28 C377.02,382.62 372.68,379.05 368.43,375.34 C368.36,375.28 368.28,375.22 368.21,375.15 C368.49,375.39 368.76,375.63 369.03,375.86 C378.45,384.04 381.57,385.73 384.24,384.08 C386.54,382.65 387.00,382.72 387.00,384.46 C387.00,385.27 385.99,386.46 384.75,387.12 C383.51,387.77 379.35,390.85 375.50,393.95 C371.65,397.06 366.61,400.66 364.31,401.95 C362.70,402.85 361.68,403.48 360.61,403.58 C358.52,403.76 356.25,401.87 349.07,395.92 C348.73,395.64 348.37,395.34 348.00,395.03 C338.60,387.24 335.95,385.07 326.00,377.00 C321.58,373.42 312.75,366.09 306.36,360.69 C299.96,355.30 289.51,346.71 283.12,341.61 C271.90,332.66 270.05,331.14 262.14,324.39 C260.14,322.69 257.38,320.74 256.00,320.08 C253.76,319.00 253.82,319.17 256.58,321.69 C257.25,322.30 258.05,323.01 258.85,323.72 C256.06,321.75 253.34,320.31 252.57,320.61 C252.51,320.63 252.46,320.66 252.40,320.68 ZM 274.49 260.11 C277.24,259.65 278.59,258.88 278.84,257.61 C279.17,255.90 278.41,255.80 267.63,256.14 C257.51,256.47 255.90,256.76 254.63,258.49 C253.83,259.59 253.42,260.86 253.71,261.33 C253.91,261.67 256.02,261.75 258.99,261.65 L 249.50 262.28 L 241.00 269.82 C236.32,273.97 231.12,278.74 229.44,280.43 C226.12,283.76 219.91,289.36 209.97,298.00 C206.49,301.02 202.21,304.85 200.46,306.50 C191.38,315.04 179.62,325.59 178.39,326.30 C175.81,327.78 176.97,330.79 182.29,336.41 L 187.57 342.00 L 210.35 342.00 C228.40,342.00 234.20,341.71 236.80,340.04 C234.23,341.70 228.59,342.00 211.57,342.00 C211.15,342.00 210.75,342.00 210.35,342.00 C188.24,342.01 187.51,342.31 192.51,347.01 C194.99,349.34 195.20,349.36 221.26,349.56 C235.69,349.67 247.84,349.81 248.25,349.88 C248.66,349.94 249.00,353.38 249.00,357.50 L 249.00 365.00 L 205.62 365.00 L 189.56 348.38 C180.73,339.24 173.17,331.20 172.77,330.51 C171.74,328.73 174.69,325.79 200.40,303.00 C202.57,301.08 206.22,297.70 208.51,295.50 C210.80,293.30 215.29,289.25 218.48,286.50 C221.68,283.75 225.27,280.60 226.47,279.50 C228.31,277.81 241.63,265.65 252.49,255.75 C254.97,253.49 256.47,253.00 261.00,252.93 C264.02,252.88 267.17,252.72 268.00,252.56 C268.83,252.41 272.20,251.98 275.51,251.62 C281.37,250.97 281.59,251.04 284.53,254.23 C286.19,256.03 288.33,258.73 289.29,260.24 C291.38,263.53 294.36,274.62 293.65,276.47 C292.75,278.81 286.67,281.11 279.12,281.97 C275.02,282.43 271.38,283.38 270.94,284.09 C270.34,285.06 268.78,284.47 264.57,281.68 C256.14,276.08 257.10,275.04 270.83,274.92 C279.58,274.85 287.08,273.32 287.65,271.49 C287.83,270.95 287.59,269.90 287.13,269.17 C286.53,268.24 284.66,268.15 277.28,269.01 C279.86,268.63 281.90,268.23 282.83,267.88 C284.81,267.12 285.10,266.51 284.54,264.23 C283.39,259.54 282.11,258.92 275.66,259.97 C274.97,260.09 274.09,260.21 273.09,260.33 C273.57,260.26 274.04,260.19 274.49,260.11 ZM 200.75 100.27 C198.83,98.14 189.73,85.70 177.50,68.47 C172.55,61.50 166.81,53.61 164.75,50.93 C162.69,48.25 160.98,45.71 160.96,45.28 C160.94,44.85 159.59,42.94 157.96,41.04 C154.51,37.00 154.30,36.00 156.88,36.00 C157.92,36.00 160.46,37.91 162.54,40.25 C167.55,45.89 198.51,77.58 199.79,78.37 C200.73,78.95 216.64,65.94 240.27,45.25 C246.35,39.93 251.72,36.00 252.92,36.00 C254.06,36.00 255.00,36.24 255.00,36.54 C255.00,36.84 253.09,39.60 250.75,42.67 C248.41,45.74 244.70,50.62 242.50,53.53 C240.30,56.43 232.20,66.52 224.50,75.95 C216.80,85.38 209.00,94.98 207.17,97.29 C203.17,102.36 202.79,102.54 200.75,100.27 ZM 463.83 132.24 C463.65,131.82 460.80,130.65 457.50,129.65 C454.20,128.65 448.12,126.55 444.00,124.99 C422.93,117.00 415.14,114.11 411.50,112.90 C407.00,111.41 401.14,106.83 386.34,93.25 C377.00,84.67 376.08,83.50 374.98,78.71 C374.32,75.84 372.91,70.80 371.84,67.50 C370.78,64.20 369.29,58.80 368.55,55.50 C367.80,52.20 366.26,46.12 365.12,42.00 C362.62,32.96 362.56,32.00 364.51,32.00 C365.35,32.00 366.88,33.91 367.92,36.25 C371.93,45.26 383.86,72.92 387.56,81.81 C388.55,84.18 390.29,86.60 391.43,87.18 C394.10,88.55 423.36,105.79 441.86,116.89 C449.76,121.62 457.41,126.19 458.86,127.04 C463.97,130.01 466.00,131.49 466.00,132.24 C466.00,133.23 464.27,133.23 463.83,132.24 ZM 89.88 360.29 C84.08,354.87 82.59,352.53 83.71,350.61 C85.85,346.91 93.04,340.00 94.75,340.00 C95.86,340.00 99.28,342.86 102.82,346.75 C106.19,350.46 110.99,355.62 113.48,358.21 C115.96,360.80 118.00,363.38 118.00,363.96 C118.00,364.62 113.81,365.00 106.46,365.00 L 94.91 365.00 ZM 340.53 154.02 C338.00,151.84 334.04,148.31 331.72,146.18 C329.40,144.06 325.78,140.78 323.69,138.91 C319.80,135.43 319.34,132.00 322.75,132.00 C326.12,132.00 348.00,152.66 348.00,155.83 C348.00,159.05 345.69,158.49 340.53,154.02 ZM 406.02 453.25 C406.06,451.58 429.69,424.00 431.08,424.00 C433.20,424.00 431.61,426.65 425.00,434.14 C421.15,438.50 418.00,442.39 417.99,442.78 C417.98,444.04 408.36,454.00 407.16,454.00 C406.52,454.00 406.01,453.66 406.02,453.25 ZM 254.42 185.52 C253.73,182.80 254.42,180.00 255.78,180.00 C256.24,180.00 257.45,180.61 258.47,181.36 C260.64,182.94 260.03,185.38 257.08,186.96 C255.33,187.90 254.96,187.70 254.42,185.52 ZM 157.83 188.00 C164.30,188.08 170.51,188.14 176.12,188.18 C171.16,188.16 165.34,188.15 158.50,188.12 C136.50,188.04 117.92,187.60 117.20,187.15 C117.13,187.10 117.05,187.03 116.97,186.94 C119.96,187.29 137.31,187.75 157.83,188.00 ZM 334.14 316.41 C334.34,311.90 334.46,304.88 334.44,297.50 C334.42,290.73 334.41,286.14 334.29,282.70 C334.46,285.18 334.58,288.16 334.71,292.00 C335.01,300.80 334.77,311.34 334.14,316.38 ZM 316.14 262.70 C312.83,254.90 307.15,244.83 301.99,236.94 C308.00,245.84 312.69,254.34 316.14,262.70 ZM 275.53 393.07 C268.84,397.01 261.78,400.40 254.99,402.86 C260.41,400.86 268.73,396.85 275.53,393.07 ZM 267.63 388.60 C262.13,391.83 256.81,394.16 251.57,395.64 C255.43,394.55 262.08,391.57 267.63,388.60 ZM 319.59 159.87 C310.42,153.49 298.22,148.21 283.02,144.05 C298.83,148.38 310.58,153.43 319.59,159.87 ZM 91.08 482.42 C91.13,481.25 91.36,481.01 91.68,481.81 C91.97,482.53 91.94,483.40 91.60,483.73 C91.27,484.06 91.04,483.47 91.08,482.42 ZM 333.55 199.84 C333.05,195.45 332.12,191.19 330.83,187.27 C331.78,189.85 332.53,192.39 332.94,194.62 C333.17,195.86 333.38,197.71 333.55,199.84 ZM 335.22 360.14 C332.82,358.23 329.95,356.01 327.43,354.12 C324.60,351.99 321.44,349.56 319.05,347.67 C325.40,352.41 331.05,356.77 335.22,360.14 ZM 250.07 333.31 C249.92,325.75 250.14,323.54 250.93,322.31 C250.25,323.99 250.00,327.15 250.07,333.31 ZM 159.88 180.89 C158.88,180.73 158.33,180.55 158.21,180.37 C157.94,179.93 157.55,179.36 157.07,178.69 C157.54,179.26 157.99,179.72 158.51,180.11 C158.91,180.42 159.36,180.67 159.88,180.89 ZM 249.92 365.60 C250.64,364.69 250.83,360.01 250.54,349.03 C250.89,360.16 250.71,364.65 249.93,365.59 C249.92,365.59 249.92,365.60 249.92,365.60 ZM 227.00 206.56 L 226.89 181.57 C226.89,181.40 226.89,181.24 226.89,181.07 C226.96,188.39 227.00,196.93 227.00,206.56 ZM 280.62 183.89 C278.32,185.96 275.59,188.31 274.00,189.58 C273.98,189.60 273.95,189.62 273.93,189.64 C275.73,188.06 277.40,186.62 278.73,185.50 C279.41,184.93 280.04,184.39 280.62,183.89 ZM 255.34 206.47 C244.34,216.55 228.27,231.02 214.01,243.66 C226.80,232.32 242.90,217.83 255.34,206.47 ZM 266.39 330.03 C268.35,331.65 270.71,333.59 273.01,335.48 C277.68,339.32 282.17,343.00 283.00,343.67 C279.56,340.90 270.68,333.61 266.39,330.03 ZM 117.48 451.50 C112.52,459.17 108.72,465.00 105.83,469.31 C108.52,465.26 112.09,459.80 116.82,452.50 C118.66,449.67 121.59,445.17 124.80,440.25 C121.79,444.87 119.10,449.00 117.48,451.50 ZM 339.79 186.14 C339.00,184.09 337.98,181.84 336.64,179.00 C336.56,178.83 336.48,178.66 336.40,178.49 C337.60,180.77 338.70,183.28 339.79,186.14 ZM 254.54 270.57 C252.40,270.43 250.43,270.69 249.05,271.23 C250.54,270.59 252.62,270.29 254.54,270.57 ZM 277.54 204.09 C275.71,205.72 273.84,207.38 272.00,208.99 C262.92,216.97 251.90,226.94 247.50,231.17 C251.90,226.94 262.92,216.97 271.98,208.99 C273.98,207.23 275.83,205.60 277.54,204.09 ZM 246.62 455.85 C251.13,460.49 256.43,465.92 262.64,472.30 C257.32,466.87 251.86,461.26 246.62,455.85 ZM 167.29 357.64 C159.00,349.13 152.61,342.41 148.20,337.57 C152.48,342.25 158.77,348.86 167.29,357.64 ZM 241.28 151.42 C243.66,150.36 247.38,150.31 253.15,150.24 C254.44,150.23 255.84,150.21 257.35,150.18 C255.98,150.21 254.70,150.22 253.52,150.24 C247.53,150.33 243.71,150.38 241.28,151.42 ZM 135.52 338.36 C131.98,334.75 128.38,331.07 124.88,327.50 C112.38,314.75 98.07,300.06 89.79,291.48 C98.03,300.01 112.16,314.52 124.47,327.07 C128.06,330.73 131.81,334.56 135.52,338.36 ZM 97.49 476.00 C97.77,474.18 98.30,471.90 99.04,469.50 C98.56,471.08 97.88,473.95 97.49,476.00 ZM 114.24 180.43 C113.45,177.85 112.67,174.75 112.01,171.50 C112.56,174.21 113.41,177.55 114.24,180.43 ZM 226.52 160.78 C226.34,155.72 226.11,152.35 225.87,151.78 C226.13,152.37 226.35,155.47 226.52,160.78 ZM 360.57 380.76 C359.49,379.89 358.31,378.95 357.03,377.93 C355.99,377.10 354.88,376.21 353.70,375.27 C354.01,375.52 354.32,375.76 354.62,376.00 C356.61,377.57 358.66,379.21 360.57,380.76 ZM 341.14 190.28 C340.86,189.18 340.52,188.10 340.11,186.97 C340.29,187.46 340.47,187.96 340.65,188.47 C340.82,188.95 340.99,189.56 341.14,190.28 ZM 248.27 366.32 C245.73,366.85 239.96,367.00 227.21,367.00 C239.87,367.00 245.71,366.85 248.27,366.32 ZM 328.70 260.23 C328.22,259.00 327.73,257.79 327.23,256.60 C327.74,257.81 328.23,259.01 328.70,260.23 Z" fill="rgb(251,132,72)"/>
<path d="M 277.54 204.09 L 277.54 204.09 C275.83,205.60 273.98,207.23 271.98,208.99 C262.92,216.97 251.90,226.94 247.50,231.17 C230.55,247.44 226.20,251.46 217.07,259.35 C211.89,263.83 202.73,272.00 196.72,277.50 C190.70,283.00 181.86,290.88 177.06,295.00 C160.32,309.38 141.00,327.43 141.00,328.68 C141.00,329.36 143.28,332.20 148.20,337.57 L 148.20 337.58 C148.60,338.01 149.01,338.46 149.44,338.92 C153.77,343.63 159.75,349.90 167.28,357.64 L 167.29 357.64 C170.06,360.51 173.08,363.60 176.34,366.94 C177.32,367.94 178.25,368.89 179.15,369.78 C185.82,376.68 186.92,378.40 186.00,379.50 C184.69,381.07 184.60,381.08 179.00,380.11 C176.53,379.68 173.96,377.72 166.91,370.57 C165.61,369.15 164.17,367.62 162.66,366.08 C158.30,361.61 147.25,350.33 135.52,338.36 C131.81,334.56 128.06,330.73 124.47,327.07 C112.16,314.52 98.03,300.01 89.79,291.48 C88.07,289.70 86.61,288.18 85.48,287.00 C78.91,280.12 69.72,270.57 65.05,265.76 C53.93,254.31 54.51,253.57 71.21,257.78 C77.97,259.48 86.88,261.64 91.00,262.56 C104.57,265.61 131.44,272.05 134.50,272.99 C144.02,275.92 164.24,280.21 168.67,280.25 C173.70,280.28 174.06,280.09 182.12,272.89 C186.68,268.83 192.46,263.48 194.97,261.00 C197.48,258.52 206.05,250.72 214.01,243.66 C228.27,231.02 244.34,216.56 255.34,206.47 L 255.34 206.47 C258.29,203.77 261.04,201.26 263.48,199.00 C266.44,196.28 270.43,192.70 273.93,189.64 C273.95,189.62 273.98,189.60 274.00,189.58 C275.59,188.31 278.32,185.96 280.62,183.89 C282.32,182.44 283.59,181.28 284.52,180.32 C287.53,177.58 288.86,176.53 290.20,176.52 C291.10,176.51 292.01,176.98 293.44,177.71 C293.60,177.79 293.76,177.88 293.92,177.96 C297.13,179.60 298.00,180.60 298.00,182.66 C298.00,184.13 297.41,185.51 294.28,188.75 C294.13,188.89 293.99,189.03 293.84,189.18 C291.50,191.51 284.77,197.65 277.54,204.09 ZM 499.00 215.88 C497.08,214.84 483.80,208.36 469.50,201.49 C455.20,194.62 442.52,188.44 441.33,187.75 C439.04,186.43 416.81,167.37 406.55,157.93 C398.56,150.57 392.79,145.52 385.50,139.48 C382.20,136.74 376.58,131.81 373.00,128.50 C369.42,125.20 364.08,120.47 361.11,118.00 C358.15,115.53 349.19,107.65 341.19,100.50 C327.45,88.22 326.39,87.00 322.01,78.50 C319.45,73.55 314.76,64.78 311.58,59.00 C299.61,37.29 298.55,35.05 299.78,33.82 C300.65,32.95 301.86,33.55 304.71,36.24 C306.80,38.20 311.74,42.66 315.71,46.15 C319.67,49.64 327.35,56.55 332.77,61.50 C338.20,66.45 346.65,73.96 351.57,78.18 C356.48,82.41 363.20,88.43 366.50,91.56 C369.80,94.70 374.98,99.33 378.00,101.86 C381.02,104.39 388.46,110.97 394.51,116.48 C400.57,121.99 410.89,131.23 417.44,137.00 C423.99,142.77 434.26,152.00 440.25,157.50 C446.25,163.00 453.32,169.30 455.96,171.50 C458.61,173.70 465.17,179.55 470.54,184.50 C481.94,195.01 483.76,196.66 492.11,204.00 C502.18,212.85 504.00,214.75 504.00,216.42 C504.00,218.35 503.44,218.29 499.00,215.88 ZM 335.22 360.14 L 335.22 360.14 C331.05,356.77 325.40,352.41 319.05,347.67 C317.75,346.65 316.68,345.79 316.00,345.23 C314.08,343.61 306.20,337.27 298.50,331.13 C290.80,324.99 279.55,315.94 273.50,311.03 C247.85,290.18 242.49,286.00 241.39,286.00 C239.37,286.00 239.03,289.96 239.00,314.00 C238.98,326.92 238.64,338.00 238.23,338.60 C237.86,339.17 237.42,339.64 236.80,340.04 C234.20,341.71 228.40,342.00 210.35,342.00 L 187.57 342.00 L 182.29 336.41 C176.97,330.79 175.81,327.78 178.39,326.30 C179.62,325.59 191.38,315.04 200.46,306.50 C202.21,304.85 206.49,301.02 209.97,298.00 C219.91,289.36 226.12,283.76 229.44,280.43 C231.12,278.74 236.32,273.97 241.00,269.82 L 249.50 262.28 L 258.99 261.65 C262.98,261.50 268.53,261.02 273.09,260.33 C274.09,260.21 274.97,260.09 275.66,259.97 C282.11,258.92 283.39,259.54 284.54,264.23 C285.10,266.51 284.81,267.12 282.83,267.88 C281.90,268.23 279.86,268.63 277.28,269.01 C276.03,269.16 274.61,269.33 273.01,269.54 C265.70,270.47 257.93,270.99 255.73,270.69 C255.33,270.64 254.93,270.60 254.54,270.57 C252.62,270.29 250.54,270.59 249.05,271.23 C247.78,271.72 247.00,272.45 247.00,273.33 C247.00,274.76 257.61,284.74 264.52,289.80 C266.71,291.41 274.80,297.97 282.50,304.39 C290.20,310.81 301.00,319.69 306.50,324.11 C312.00,328.54 319.42,334.76 323.00,337.94 C330.43,344.55 341.66,353.79 352.85,362.50 C356.85,365.61 363.55,371.14 368.21,375.15 L 368.21 375.15 C368.29,375.22 368.36,375.28 368.43,375.34 C372.68,379.05 377.02,382.62 378.08,383.28 C380.88,385.03 380.43,387.73 377.05,389.47 C373.73,391.19 373.18,391.43 370.52,389.13 C369.00,387.56 365.99,385.10 360.57,380.76 C358.66,379.21 356.61,377.57 354.62,376.00 C354.32,375.76 354.01,375.52 353.70,375.27 L 353.70 375.27 L 353.50 375.11 C348.00,370.71 341.67,365.53 339.43,363.60 C338.49,362.78 336.98,361.55 335.22,360.14 ZM 334.00 207.62 C334.00,205.01 333.85,202.40 333.55,199.84 C333.38,197.71 333.17,195.86 332.94,194.62 C332.53,192.39 331.78,189.85 330.83,187.27 C328.91,181.42 326.19,176.29 322.86,172.49 C315.79,164.44 301.45,157.33 281.48,152.00 C274.53,150.14 271.33,149.90 257.35,150.18 C255.84,150.21 254.44,150.23 253.15,150.24 C247.38,150.31 243.66,150.36 241.28,151.42 C240.63,151.70 240.08,152.04 239.61,152.48 C237.61,154.35 237.15,157.86 237.06,164.51 L 237.06 164.52 C237.01,166.94 237.02,169.79 237.03,173.12 C237.03,174.93 237.04,176.89 237.03,179.00 L 237.00 202.50 L 233.55 205.25 C230.27,207.87 227.11,208.83 227.00,207.26 L 227.00 206.56 C227.00,196.93 226.96,188.39 226.89,181.07 L 226.89 181.07 C226.85,173.32 226.72,166.11 226.52,160.78 C226.35,155.47 226.13,152.37 225.87,151.78 C225.86,151.77 225.86,151.76 225.85,151.75 C225.03,150.19 223.13,150.00 208.52,150.00 C198.67,150.00 191.87,149.60 191.50,149.00 C191.16,148.45 189.80,148.00 188.48,148.00 C187.16,148.00 185.58,147.44 184.98,146.75 C183.02,144.52 164.49,118.31 160.00,111.41 C157.66,107.81 153.03,101.28 146.50,92.34 C140.46,84.08 132.40,72.88 122.50,59.00 C114.79,48.19 109.90,39.97 110.55,38.92 C110.86,38.41 114.82,38.00 119.34,38.00 C128.59,38.00 130.98,39.08 133.78,44.49 C135.57,47.96 143.34,59.52 151.93,71.50 C154.69,75.35 158.50,80.75 160.38,83.50 C162.27,86.25 164.91,90.07 166.24,92.00 C167.58,93.93 170.62,98.43 173.01,102.00 C193.83,133.13 196.46,136.60 201.43,139.51 L 205.68 142.00 L 240.61 142.00 C272.72,142.00 276.14,142.17 283.02,144.05 C298.22,148.21 310.42,153.49 319.59,159.87 C322.27,161.79 324.71,163.82 326.94,166.00 C330.97,169.93 333.89,173.71 336.40,178.49 C336.48,178.66 336.56,178.83 336.64,179.00 C337.98,181.84 339.00,184.09 339.79,186.14 C339.90,186.41 340.00,186.69 340.11,186.97 L 340.11 186.97 C340.52,188.10 340.86,189.19 341.14,190.28 C341.64,192.57 342.04,195.93 342.32,199.70 C342.42,202.28 342.45,205.35 342.46,209.20 C342.51,227.44 341.86,229.21 337.05,224.05 C334.06,220.86 334.00,220.58 334.00,210.58 C334.00,210.02 334.00,209.46 333.99,208.88 C334.00,208.47 334.00,208.05 334.00,207.62 ZM 246.62 455.85 C240.18,449.18 234.08,442.81 229.00,437.42 C228.03,436.38 227.05,435.38 226.11,434.42 C221.22,429.08 221.05,428.31 221.35,427.53 C222.03,425.76 223.81,425.60 227.48,426.99 C228.91,427.54 242.14,440.14 256.88,454.99 C271.62,469.85 284.23,482.00 284.91,482.00 L 284.91 482.00 L 284.91 482.00 L 284.92 482.00 C286.37,482.00 292.77,477.70 302.70,470.05 C306.66,467.00 312.51,462.58 315.70,460.23 C318.89,457.88 328.70,450.58 337.50,444.01 C346.30,437.43 365.88,422.90 381.00,411.72 C396.12,400.54 409.67,390.52 411.09,389.45 C413.03,388.00 414.80,386.66 416.42,385.44 L 416.43 385.44 C432.81,373.13 434.46,371.90 435.61,372.25 C435.85,372.33 436.08,372.48 436.41,372.60 C439.73,373.88 438.25,378.45 432.86,383.59 C430.04,386.29 425.63,390.52 423.08,393.00 C420.52,395.48 416.90,398.77 415.04,400.32 C413.17,401.86 406.88,407.71 401.05,413.32 C395.23,418.92 384.66,428.90 377.58,435.50 C370.49,442.10 364.19,448.06 363.59,448.76 C362.99,449.45 358.67,453.46 354.00,457.67 C343.03,467.56 318.34,490.77 315.35,494.00 C314.08,495.38 312.62,496.87 312.10,497.33 C311.59,497.79 309.84,499.36 308.22,500.83 C303.32,505.27 299.58,507.61 297.96,507.26 C297.11,507.08 280.65,490.68 262.64,472.30 L 262.64 472.30 L 262.64 472.30 ZM 275.53 393.07 C268.73,396.85 260.41,400.86 254.99,402.86 L 254.99 402.86 C254.72,402.95 254.45,403.05 254.19,403.14 C248.76,405.04 247.05,405.50 235.50,408.16 C232.32,408.89 214.85,409.47 187.50,409.73 L 144.50 410.15 L 133.90 426.32 C131.02,430.73 127.75,435.73 124.80,440.25 L 124.79 440.27 C121.58,445.18 118.66,449.67 116.82,452.50 C112.09,459.80 108.52,465.26 105.84,469.31 L 105.83 469.31 C100.61,477.13 98.41,480.00 97.79,480.00 C97.19,480.00 97.12,478.41 97.49,476.00 C97.88,473.95 98.56,471.08 99.04,469.50 C100.16,465.86 110.34,425.22 113.44,412.00 L 115.66 402.50 L 172.58 401.89 C226.62,401.32 233.52,400.95 243.00,398.12 C244.93,397.55 248.78,396.43 251.57,395.64 C255.43,394.55 262.08,391.57 267.63,388.60 C270.59,387.02 273.25,385.44 274.99,384.15 C277.00,382.68 279.64,380.52 282.32,378.20 C284.44,376.46 286.59,374.60 288.78,372.61 C292.79,368.97 296.66,366.00 297.38,366.00 C299.10,366.00 302.00,369.25 302.00,371.16 C302.00,371.88 300.26,373.90 297.68,376.42 L 297.68 376.42 C297.30,376.77 296.91,377.15 296.49,377.55 C290.68,383.07 283.36,388.45 275.53,393.07 ZM 157.83 188.00 C137.31,187.75 119.96,187.29 116.97,186.94 C116.23,186.15 115.24,183.71 114.24,180.43 C113.41,177.55 112.56,174.21 112.01,171.50 C110.59,164.50 108.25,154.69 106.52,148.50 C105.60,145.20 104.00,139.35 102.98,135.50 C102.17,132.49 101.45,129.77 100.79,127.30 C95.49,107.46 94.65,104.33 95.33,103.96 C95.46,103.89 95.64,103.92 95.85,103.95 C95.99,103.98 96.15,104.00 96.31,104.00 C97.03,104.00 98.68,105.46 99.97,107.25 C101.27,109.04 102.93,111.18 103.66,112.00 C104.40,112.82 106.58,115.53 108.50,118.00 C110.42,120.47 112.83,123.40 113.86,124.50 C114.88,125.60 119.04,130.77 123.11,136.00 C127.17,141.23 131.25,146.40 132.17,147.50 C135.33,151.29 142.51,160.29 144.44,162.89 C145.51,164.33 147.76,167.09 149.44,169.04 C151.12,170.99 153.62,174.10 155.00,175.95 C155.82,177.05 156.45,177.95 157.07,178.69 C157.55,179.36 157.94,179.93 158.21,180.37 C158.33,180.55 158.88,180.73 159.88,180.89 C162.57,182.01 167.23,182.01 178.86,182.00 C179.77,182.00 180.71,182.00 181.70,182.00 C202.87,182.46 204.50,182.63 204.83,184.36 C205.27,186.63 204.26,187.63 201.00,188.12 C200.35,188.22 195.63,188.26 188.47,188.24 C185.10,188.22 181.03,188.20 176.12,188.18 L 176.12 188.18 C170.51,188.14 164.30,188.08 157.83,188.00 ZM 334.14 316.41 C333.90,318.30 333.72,320.11 333.61,321.66 C332.55,324.78 330.27,324.58 326.13,321.03 L 322.75 318.15 L 323.47 305.69 C323.53,304.57 323.58,303.46 323.61,302.36 C324.31,289.90 321.73,276.03 316.27,263.00 C316.23,262.90 316.18,262.80 316.14,262.70 C312.69,254.34 308.00,245.84 301.99,236.94 C300.08,234.02 298.24,231.39 296.62,229.30 C291.87,222.59 292.10,221.83 295.32,218.25 C298.89,214.29 301.30,215.30 307.26,223.25 C307.89,224.09 308.51,224.92 309.11,225.74 C318.07,238.63 323.36,247.58 327.23,256.60 L 327.23 256.60 L 327.25 256.65 C327.75,257.84 328.24,259.03 328.70,260.22 L 328.70 260.23 C329.49,262.27 330.22,264.35 330.93,266.50 C333.06,273.04 333.84,276.15 334.29,282.70 C334.41,286.14 334.42,290.73 334.44,297.50 C334.46,304.88 334.34,311.90 334.14,316.41 ZM 185.21 55.45 C174.04,44.25 171.93,41.68 173.09,40.70 C174.14,39.80 181.94,39.63 203.99,40.00 C229.19,40.43 233.52,40.72 233.76,42.01 C233.94,42.92 232.27,44.49 229.53,45.99 C227.04,47.35 225.00,48.79 225.00,49.20 C225.00,49.60 222.41,51.86 219.25,54.22 C216.09,56.57 210.68,60.86 207.24,63.75 C203.79,66.64 200.47,69.00 199.86,69.00 C199.24,69.00 192.65,62.90 185.21,55.45 ZM 480.41 480.93 C475.71,477.19 469.26,471.68 453.90,458.25 C447.45,452.61 441.52,448.00 440.71,448.00 C439.18,448.00 429.50,452.25 417.21,458.33 C411.25,461.27 409.81,461.66 409.34,460.45 C409.01,459.57 410.35,457.22 412.64,454.67 C414.76,452.31 418.52,447.97 421.00,445.02 C430.27,434.00 431.24,433.00 432.67,433.00 C434.35,433.00 437.29,435.31 454.89,450.50 C461.90,456.55 469.86,463.38 472.57,465.67 C475.28,467.96 479.51,471.67 481.96,473.92 C484.41,476.16 486.73,478.00 487.10,478.00 C488.45,478.00 489.01,481.28 487.89,482.63 C486.20,484.67 484.69,484.33 480.41,480.93 ZM 433.00 106.00 C431.62,104.92 430.17,104.03 429.76,104.02 C428.87,104.00 409.04,92.33 400.13,86.59 L 393.76 82.49 L 387.98 69.05 C379.58,49.50 381.00,48.20 394.88,62.75 C400.00,68.11 411.57,79.95 420.59,89.05 C435.23,103.81 438.73,108.05 436.25,107.98 C435.84,107.97 434.38,107.08 433.00,106.00 Z" fill="rgb(254,197,23)"/>
<path d="M 0.00 276.00 L 0.00 0.00 L 276.00 0.00 L 552.00 0.00 L 552.00 276.00 L 552.00 552.00 L 276.00 552.00 L 0.00 552.00 L 0.00 276.00 ZM 326.07 529.25 C334.40,519.49 345.78,506.11 351.36,499.52 C356.94,492.94 365.55,482.81 370.50,477.02 C375.45,471.23 384.43,460.65 390.46,453.50 C396.49,446.35 401.69,440.27 402.01,440.00 C402.33,439.73 406.90,434.33 412.17,428.00 C417.44,421.67 422.60,415.60 423.63,414.50 C424.66,413.40 430.98,405.98 437.67,398.00 C444.36,390.02 453.27,379.49 457.46,374.59 C461.66,369.69 464.95,364.96 464.78,364.09 C464.53,362.81 463.30,362.55 458.48,362.77 C455.19,362.93 446.81,363.31 439.85,363.62 L 427.20 364.20 L 416.85 371.95 C404.40,381.28 358.32,415.52 355.50,417.54 C353.26,419.15 306.27,453.96 295.65,461.89 C291.88,464.70 288.21,467.00 287.48,467.00 C286.75,467.00 284.66,465.27 282.83,463.15 C279.93,459.79 271.51,450.61 251.34,428.75 L 246.03 423.00 L 217.07 423.00 C201.15,423.00 187.87,423.40 187.57,423.88 C186.89,424.99 307.80,547.00 309.59,547.00 C310.32,547.00 317.73,539.01 326.07,529.25 ZM 85.83 513.20 C87.30,511.66 91.72,506.37 95.65,501.45 C118.29,473.11 162.03,419.64 163.16,418.92 C163.66,418.60 179.24,418.55 197.78,418.80 C229.94,419.24 231.92,419.16 240.50,417.07 C252.84,414.06 270.47,408.28 276.50,405.27 C294.46,396.31 314.00,380.82 314.00,375.55 C314.00,373.33 313.17,372.49 304.20,365.51 C303.49,364.95 301.91,363.56 300.70,362.42 C296.75,358.68 289.32,353.00 288.37,353.00 C287.87,353.00 283.86,356.63 279.48,361.06 C267.38,373.29 254.52,381.16 238.38,386.22 C231.71,388.32 229.66,388.39 170.18,388.75 L 108.86 389.13 L 95.40 375.90 C87.36,368.01 81.57,363.04 81.04,363.58 C80.38,364.26 79.29,510.27 79.91,515.25 C80.12,516.94 83.32,515.82 85.83,513.20 ZM 511.43 492.11 C512.03,491.15 500.43,480.26 482.00,464.46 C471.49,455.46 437.31,425.31 434.18,422.28 C431.56,419.74 431.28,419.97 418.95,434.56 C411.67,443.17 395.92,461.60 379.78,480.38 C373.86,487.26 372.31,489.67 373.14,490.67 C374.02,491.73 387.54,492.04 441.87,492.25 C479.07,492.40 509.81,492.62 510.19,492.76 C510.57,492.89 511.13,492.60 511.43,492.11 ZM 366.82 402.30 C369.39,400.81 371.73,399.30 372.00,398.93 C372.86,397.77 385.39,388.39 387.75,387.13 C390.79,385.51 390.58,382.58 387.25,380.08 C385.74,378.95 384.05,377.67 383.50,377.24 C382.95,376.80 379.58,374.23 376.00,371.51 C372.42,368.79 369.05,366.06 368.50,365.43 C367.95,364.81 364.12,361.66 360.00,358.43 C355.88,355.21 351.90,351.99 351.16,351.27 C350.43,350.56 348.18,348.74 346.16,347.23 C344.15,345.73 341.87,343.91 341.11,343.18 C339.52,341.68 330.14,333.98 316.50,323.00 C286.93,299.20 272.60,287.06 272.20,285.46 C272.00,284.66 274.32,284.03 279.20,283.56 C287.24,282.78 294.67,280.02 295.66,277.44 C297.19,273.46 290.24,257.48 284.64,252.10 L 281.10 248.70 L 275.38 249.85 C272.24,250.48 266.39,251.00 262.38,251.00 C255.69,251.00 254.87,251.23 252.30,253.86 C250.76,255.43 242.75,262.70 234.50,270.02 C226.25,277.34 215.89,286.74 211.47,290.91 C207.05,295.09 196.14,305.01 187.22,312.97 C178.30,320.93 171.00,328.19 171.00,329.11 C171.00,330.63 181.87,342.71 199.05,360.25 L 205.66 367.00 L 227.21 367.00 C244.56,367.00 248.98,366.72 249.93,365.59 C250.79,364.55 250.92,359.16 250.41,345.24 C249.67,325.27 249.99,321.60 252.57,320.61 C253.86,320.12 260.56,324.46 264.00,328.02 C264.43,328.46 278.46,340.02 283.00,343.67 C289.87,349.19 299.08,356.74 314.00,369.07 C342.68,392.79 346.93,396.30 352.33,400.75 C355.18,403.08 358.54,404.99 359.82,405.00 C361.10,405.00 364.25,403.78 366.82,402.30 ZM 206.42 383.68 C207.41,382.96 208.06,381.63 207.86,380.72 C207.36,378.42 200.49,370.02 186.99,355.16 C165.37,331.39 163.00,328.71 163.00,328.04 C163.00,327.49 168.88,322.14 195.47,298.50 C196.71,297.40 202.17,292.40 207.61,287.39 C213.05,282.39 226.27,270.51 237.00,260.99 C253.75,246.14 260.17,240.35 277.08,224.86 C282.27,220.10 296.66,207.20 302.50,202.07 C312.25,193.49 312.11,193.73 310.34,188.22 C308.19,181.55 301.07,175.09 292.70,172.22 C284.60,169.44 284.73,169.43 281.33,172.79 C279.77,174.33 272.65,180.70 265.50,186.95 C258.35,193.20 250.93,199.95 249.00,201.95 C247.07,203.94 241.23,209.36 236.00,213.99 C230.77,218.62 223.12,225.59 219.00,229.47 C214.88,233.34 207.72,239.89 203.10,244.01 C189.47,256.17 189.76,255.92 182.25,261.93 L 178.01 265.33 L 169.75 263.57 C165.21,262.60 157.90,260.96 153.50,259.93 C149.10,258.89 141.00,257.11 135.50,255.97 C130.00,254.82 121.56,253.01 116.75,251.94 C103.01,248.89 82.93,244.42 61.50,239.64 C55.45,238.30 46.90,236.44 42.50,235.52 C38.10,234.60 30.67,232.96 26.00,231.88 C15.54,229.46 8.88,229.04 8.27,230.75 C8.03,231.44 11.82,236.17 16.69,241.25 C21.56,246.34 34.27,259.95 44.95,271.50 C63.12,291.17 68.63,297.03 80.59,309.50 C83.23,312.25 96.94,326.88 111.06,342.00 C125.18,357.12 140.35,372.99 144.75,377.25 L 152.77 385.00 L 178.69 385.00 C198.55,385.00 205.04,384.69 206.42,383.68 ZM 120.51 365.98 C120.86,365.42 119.94,363.51 118.47,361.73 C112.43,354.44 97.70,338.91 95.92,337.96 C94.29,337.08 93.04,337.94 87.52,343.72 C83.95,347.45 81.02,351.21 81.02,352.09 C81.01,352.96 84.11,356.67 87.90,360.34 L 94.81 367.00 L 107.34 367.00 C114.79,367.00 120.14,366.59 120.51,365.98 ZM 341.95 332.15 C347.13,312.79 349.35,297.31 348.03,289.90 C347.50,286.93 346.37,280.45 345.53,275.50 C344.68,270.55 342.88,262.90 341.53,258.50 C339.06,250.45 328.69,231.03 323.56,224.83 C317.42,217.41 305.63,206.00 304.12,206.01 C302.03,206.01 278.40,229.58 278.80,231.24 C278.97,231.93 279.67,232.95 280.36,233.50 C281.05,234.05 284.12,237.88 287.19,242.00 C293.32,250.26 300.07,264.46 301.92,273.00 C302.58,276.02 303.88,280.75 304.81,283.50 C305.98,286.97 306.50,291.81 306.50,299.32 L 306.50 310.15 L 316.50 318.68 C322.00,323.37 327.83,328.40 329.47,329.86 C338.34,337.77 340.35,338.14 341.95,332.15 ZM 348.36 239.71 C354.57,228.40 356.36,221.09 356.37,207.00 C356.37,196.00 356.05,193.56 353.67,186.67 C350.04,176.18 347.63,171.63 341.95,164.50 C334.36,154.99 322.32,144.19 315.40,140.68 C309.97,137.92 294.72,132.97 288.00,131.78 C284.41,131.14 265.60,130.37 246.00,130.06 L 210.50 129.50 L 204.50 120.19 C195.37,106.02 145.88,34.60 144.61,33.77 C143.28,32.88 91.85,32.74 89.58,33.61 C87.12,34.55 87.66,36.34 92.31,42.65 C94.68,45.87 101.24,55.03 106.88,63.00 C112.53,70.97 117.80,78.40 118.61,79.50 C119.41,80.60 123.41,86.22 127.49,92.00 C131.57,97.78 136.72,104.97 138.94,108.00 C141.15,111.03 146.75,118.90 151.38,125.50 C171.09,153.62 176.04,160.07 178.71,161.08 C180.04,161.59 188.74,162.00 198.05,162.00 L 214.97 162.00 L 215.24 192.74 C215.46,219.13 215.71,223.51 217.00,223.74 C218.39,223.99 224.68,219.10 234.50,210.13 C236.70,208.12 241.08,204.30 244.23,201.64 L 249.95 196.80 L 250.23 180.65 L 250.50 164.50 L 266.00 164.20 C284.13,163.84 290.86,164.90 300.08,169.54 C313.98,176.54 321.69,189.38 322.87,207.50 L 323.52 217.50 L 329.15 225.00 C332.25,229.12 336.01,234.98 337.50,238.00 C340.61,244.28 342.89,247.19 344.11,246.43 C344.57,246.15 346.49,243.12 348.36,239.71 ZM 542.00 243.56 C542.00,242.25 531.58,232.68 481.41,187.91 C457.97,167.00 451.32,160.99 448.16,157.88 C445.74,155.50 439.60,149.99 416.56,129.50 C412.23,125.65 408.20,122.04 407.60,121.47 C406.99,120.90 397.05,111.97 385.50,101.62 C373.95,91.28 360.00,78.66 354.50,73.58 C349.00,68.51 334.23,55.17 321.68,43.93 C309.13,32.69 294.51,19.58 289.18,14.80 C283.86,10.01 278.95,6.08 278.27,6.05 C277.59,6.02 276.79,7.01 276.48,8.25 C275.64,11.67 276.47,77.28 277.37,79.00 C277.81,79.82 282.97,84.68 288.83,89.79 C299.22,98.83 305.80,104.77 315.00,113.40 C317.48,115.72 326.02,123.40 334.00,130.46 C341.98,137.52 353.00,147.47 358.50,152.57 C364.00,157.67 376.46,168.96 386.18,177.67 C395.91,186.38 411.78,200.64 421.46,209.37 L 439.06 225.23 L 450.28 227.53 C456.45,228.79 466.67,230.79 473.00,231.97 C479.33,233.15 487.65,234.78 491.50,235.59 C495.35,236.40 502.33,237.75 507.00,238.59 C523.60,241.58 530.55,242.91 534.50,243.85 C540.34,245.24 542.00,245.17 542.00,243.56 ZM 95.88 215.97 L 108.26 204.00 L 157.55 204.00 C184.66,204.00 207.55,203.73 208.42,203.39 C210.78,202.49 210.78,176.51 208.42,175.61 C207.55,175.27 197.09,174.98 185.17,174.95 L 163.50 174.90 L 159.67 170.20 C157.56,167.62 151.28,159.88 145.70,153.00 C140.13,146.12 134.96,139.87 134.22,139.11 C133.47,138.34 130.45,134.74 127.51,131.11 C124.57,127.47 117.37,118.65 111.51,111.50 C105.65,104.35 97.54,94.38 93.49,89.34 C85.25,79.12 84.83,78.74 82.59,79.60 C81.16,80.15 81.00,87.48 81.00,154.11 C81.00,212.57 81.26,227.99 82.25,227.97 C82.94,227.96 89.07,222.56 95.88,215.97 ZM 259.27 188.25 C260.13,187.29 261.15,185.26 261.53,183.75 C262.14,181.31 261.84,180.84 258.87,179.59 C252.96,177.10 251.01,180.46 253.55,188.75 C254.11,190.57 257.44,190.28 259.27,188.25 ZM 348.80 158.80 C351.52,156.08 349.98,153.31 341.38,145.41 C324.82,130.19 323.49,129.03 322.77,129.02 C321.51,128.99 318.82,133.83 319.17,135.52 C319.61,137.69 344.08,159.95 346.05,159.98 C346.90,159.99 348.14,159.46 348.80,158.80 ZM 474.49 136.02 C475.25,134.79 475.94,135.48 409.02,71.50 C402.69,65.45 390.98,53.96 383.00,45.97 C370.10,33.04 362.01,26.66 360.47,28.19 C359.89,28.78 361.53,35.95 365.46,50.00 C366.92,55.22 369.40,64.45 370.97,70.50 C372.53,76.55 374.20,82.47 374.66,83.66 C375.12,84.85 380.00,89.80 385.50,94.67 C391.00,99.54 397.29,105.26 399.47,107.39 C403.57,111.39 407.49,113.40 419.50,117.68 C442.69,125.94 464.42,133.90 469.00,135.82 C472.24,137.17 473.74,137.23 474.49,136.02 ZM 219.63 84.32 C228.36,73.49 237.12,62.80 239.11,60.57 C241.09,58.33 243.91,54.70 245.37,52.50 C246.84,50.30 250.28,45.82 253.03,42.54 C255.78,39.25 257.87,36.10 257.68,35.54 C257.25,34.22 230.00,33.30 186.36,33.13 C156.36,33.01 153.15,33.16 152.58,34.66 C152.21,35.62 152.72,37.19 153.80,38.41 C154.82,39.56 160.08,46.80 165.51,54.50 C170.93,62.20 177.01,70.75 179.03,73.50 C181.05,76.25 186.21,83.45 190.49,89.50 C199.77,102.60 200.93,104.00 202.54,104.00 C203.22,104.00 210.91,95.14 219.63,84.32 Z" fill="rgb(254,254,253)"/>
</g>
</svg>